<?xml version="1.0" encoding="UTF-8"?>
<!DOCTYPE svg PUBLIC "-//W3C//DTD SVG 1.1//EN" "http://www.w3.org/Graphics/SVG/1.1/DTD/svg11.dtd">
<!-- Creator: CorelDRAW 2021 (64-Bit) -->
<svg xmlns="http://www.w3.org/2000/svg" xml:space="preserve" width="657px" height="657px" version="1.1" style="shape-rendering:geometricPrecision; text-rendering:geometricPrecision; image-rendering:optimizeQuality; fill-rule:evenodd; clip-rule:evenodd"
viewBox="0 0 527.687 527.689"
 xmlns:xlink="http://www.w3.org/1999/xlink"
 xmlns:xodm="http://www.corel.com/coreldraw/odm/2003">
 <defs>
  <style type="text/css">
   <![CDATA[
    .fil1 {fill:#111111}
    .fil0 {fill:#111111;fill-rule:nonzero}
   ]]>
  </style>
 </defs>
 <g id="Layer_x0020_1">
  <metadata id="CorelCorpID_0Corel-Layer"/>
  <g id="_2254920021856">
   <line class="fil0" x1="282.976" y1="523.471" x2="282.976" y2= "523.471" />
   <line class="fil0" x1="282.976" y1="523.471" x2="282.976" y2= "523.471" />
   <path class="fil0" d="M56.288 523.471l0 0zm0 0z"/>
   <line class="fil0" x1="282.976" y1="523.471" x2="282.976" y2= "523.471" />
   <line class="fil0" x1="282.976" y1="523.471" x2="282.976" y2= "523.471" />
   <line class="fil0" x1="56.288" y1="523.471" x2="56.288" y2= "523.471" />
   <line class="fil0" x1="56.288" y1="523.471" x2="56.288" y2= "523.471" />
   <line class="fil1" x1="56.288" y1="523.471" x2="56.288" y2= "523.471" />
   <line class="fil0" x1="282.976" y1="523.471" x2="282.976" y2= "523.471" />
   <line class="fil0" x1="282.976" y1="523.471" x2="282.976" y2= "523.471" />
   <line class="fil0" x1="282.976" y1="523.471" x2="282.976" y2= "523.471" />
   <line class="fil0" x1="282.976" y1="523.471" x2="282.976" y2= "523.471" />
   <line class="fil0" x1="56.288" y1="523.471" x2="56.288" y2= "523.471" />
   <line class="fil0" x1="282.976" y1="523.471" x2="282.976" y2= "523.471" />
   <path class="fil0" d="M282.976 523.471l0 0 0 0zm0 0z"/>
   <polygon class="fil0" points="282.976,290.149 282.976,523.471 282.976,523.471 282.976,290.149 282.976,290.149 282.976,523.471 282.976,523.471 "/>
   <polygon class="fil0" points="282.976,290.149 282.976,523.471 282.976,523.471 282.976,290.149 282.976,290.149 282.976,523.471 282.976,523.471 "/>
   <line class="fil0" x1="282.976" y1="523.471" x2="282.976" y2= "523.471" />
   <line class="fil0" x1="282.976" y1="523.471" x2="282.976" y2= "523.471" />
   <line class="fil0" x1="282.976" y1="523.471" x2="282.976" y2= "523.471" />
   <line class="fil0" x1="282.976" y1="523.471" x2="282.976" y2= "523.471" />
   <polygon class="fil0" points="282.976,290.149 282.976,523.471 282.976,523.471 282.976,290.149 282.976,290.149 "/>
   <polygon class="fil0" points="282.976,523.471 282.976,523.471 282.976,290.149 282.976,290.149 "/>
   <polygon class="fil0" points="282.976,523.471 282.976,523.471 282.976,290.149 282.976,290.149 "/>
   <polygon class="fil0" points="282.976,290.149 282.976,523.471 282.976,523.471 282.976,290.149 282.976,290.149 "/>
   <polygon class="fil0" points="282.976,290.149 282.976,523.471 282.976,523.471 "/>
   <polygon class="fil0" points="282.976,290.149 282.976,523.471 282.976,523.471 "/>
   <line class="fil0" x1="282.976" y1="523.471" x2="282.976" y2= "523.471" />
   <line class="fil0" x1="282.976" y1="523.471" x2="282.976" y2= "523.471" />
   <path class="fil0" d="M282.976 523.471zm0 0zm0 0z"/>
   <line class="fil0" x1="450.518" y1="523.471" x2="450.518" y2= "523.471" />
   <line class="fil0" x1="282.976" y1="523.471" x2="282.976" y2= "523.471" />
   <line class="fil0" x1="282.976" y1="523.471" x2="282.976" y2= "523.471" />
   <line class="fil1" x1="282.976" y1="523.471" x2="282.976" y2= "523.471" />
   <line class="fil1" x1="282.976" y1="523.471" x2="282.976" y2= "523.471" />
   <line class="fil0" x1="282.976" y1="523.471" x2="282.976" y2= "523.471" />
   <line class="fil0" x1="282.976" y1="523.471" x2="282.976" y2= "523.471" />
   <line class="fil0" x1="282.976" y1="523.471" x2="282.976" y2= "523.471" />
   <line class="fil0" x1="282.976" y1="523.471" x2="282.976" y2= "523.471" />
   <line class="fil0" x1="282.976" y1="523.471" x2="282.976" y2= "523.471" />
   <line class="fil0" x1="282.976" y1="523.471" x2="282.976" y2= "523.471" />
   <path class="fil0" d="M282.976 523.471zm0 0l0 0 0 0z"/>
   <line class="fil0" x1="282.976" y1="523.471" x2="282.976" y2= "523.471" />
   <path class="fil0" d="M282.976 523.471zm0 0zm0 0zm0 0zm0 0zm0 0zm0 0zm0 0zm0 0zm0 0z"/>
   <line class="fil0" x1="282.976" y1="523.471" x2="282.976" y2= "523.471" />
   <line class="fil0" x1="282.976" y1="523.471" x2="282.976" y2= "523.471" />
   <line class="fil0" x1="282.976" y1="523.471" x2="282.976" y2= "523.471" />
   <line class="fil0" x1="282.976" y1="523.471" x2="282.976" y2= "523.471" />
   <line class="fil0" x1="282.976" y1="523.471" x2="282.976" y2= "523.471" />
   <path class="fil0" d="M282.976 523.471l0 0 0 0zm0 0z"/>
   <line class="fil0" x1="282.976" y1="523.471" x2="282.976" y2= "523.471" />
   <line class="fil0" x1="282.976" y1="523.471" x2="282.976" y2= "523.471" />
   <line class="fil0" x1="282.976" y1="523.471" x2="282.976" y2= "523.471" />
   <line class="fil0" x1="282.976" y1="523.471" x2="282.976" y2= "523.471" />
   <line class="fil0" x1="282.976" y1="523.471" x2="282.976" y2= "523.471" />
  </g>
  <path class="fil0" d="M36.745 34.502c-2.514,1.168 -4.507,3.908 -4.603,7.982 0.022,0.837 -0.488,1.631 -1.316,1.933 -1.038,0.375 -2.187,-0.164 -2.563,-1.198 -1.363,-3.76 -3.928,-5.621 -6.466,-5.897 -1.168,-0.124 -2.327,0.072 -3.363,0.569 -1.024,0.495 -1.938,1.292 -2.605,2.363 -1.687,2.703 -1.814,7.127 1.379,12.949 4.475,8.149 11.971,13.743 18.794,18.839 0.234,0.175 0.465,0.348 0.823,0.615l0.815 -1.444c3.956,-7.004 8.158,-14.443 9.324,-23.081 0.922,-6.816 -0.8,-11 -3.405,-12.962 -1.013,-0.765 -2.166,-1.189 -3.328,-1.296 -1.173,-0.106 -2.376,0.113 -3.486,0.628l0 0zm-7.515 2.55c1.219,-2.937 3.353,-5.032 5.821,-6.182 1.738,-0.811 3.646,-1.142 5.535,-0.973 1.898,0.172 3.761,0.853 5.384,2.077 3.643,2.742 6.106,8.195 4.957,16.691 -1.265,9.38 -5.667,17.171 -9.81,24.504 -0.515,0.911 -1.025,1.812 -1.913,3.427 -0.532,0.969 -1.749,1.324 -2.718,0.789 -0.132,-0.072 -0.25,-0.156 -0.359,-0.251l-2.52 -1.881c-7.154,-5.341 -15.01,-11.208 -19.907,-20.129 -4.008,-7.3 -3.642,-13.18 -1.27,-16.983 1.079,-1.731 2.576,-3.03 4.284,-3.852 1.704,-0.816 3.609,-1.148 5.507,-0.944 2.515,0.272 5.02,1.472 7.009,3.707l0 0z"/>
  <path class="fil0" d="M53.65 118.467c-2.728,-0.049 -5.527,-1.095 -7.833,-3.273 -0.913,2.848 -2.712,4.957 -4.904,6.23 -1.65,0.957 -3.526,1.43 -5.414,1.374 -1.892,-0.058 -3.788,-0.635 -5.477,-1.778 -3.712,-2.512 -6.441,-7.738 -5.745,-16.038 0.853,-10.134 5.652,-18.688 10.019,-26.478 0.568,-1.011 1.128,-2.01 1.603,-2.872l0.005 0.003c0.049,-0.084 0.098,-0.165 0.16,-0.246 0.666,-0.878 1.917,-1.05 2.797,-0.384 0.795,0.607 1.963,1.473 3.145,2.345 6.756,5.015 13.939,10.345 18.915,18.409 4.498,7.296 4.463,13.284 2.25,17.268 -0.99,1.783 -2.415,3.164 -4.075,4.088 -1.648,0.918 -3.527,1.382 -5.446,1.352l0 0zm-7.412 -9.507c1.745,3.745 4.694,5.464 7.473,5.511 1.221,0.023 2.409,-0.271 3.443,-0.849 1.029,-0.57 1.905,-1.429 2.524,-2.537 1.583,-2.848 1.454,-7.373 -2.158,-13.225 -4.565,-7.409 -11.434,-12.505 -17.896,-17.298 -0.436,-0.325 -0.869,-0.646 -1.337,-0.992l-0.499 0.892c-4.162,7.426 -8.737,15.579 -9.515,24.847 -0.557,6.62 1.355,10.608 3.99,12.39 1.05,0.712 2.206,1.071 3.345,1.103 1.147,0.033 2.289,-0.255 3.302,-0.843 2.207,-1.28 3.792,-4.023 3.514,-8.021 -0.072,-1.103 0.764,-2.056 1.867,-2.13 0.847,-0.054 1.607,0.424 1.943,1.152l0.004 0 0 0z"/>
  <path class="fil0" d="M0 89.031l0 -7.053c0.987,0.341 2.106,0.547 3.345,0.578 0.838,-0.022 1.633,0.488 1.932,1.316 0.376,1.04 -0.162,2.187 -1.196,2.563 -1.77,0.642 -3.117,1.55 -4.081,2.596l0 0zm0 -24.87c2.6,-0.698 5.764,-0.898 9.527,-0.39 9.38,1.265 17.174,5.667 24.504,9.811 0.909,0.516 1.815,1.026 3.426,1.914 0.971,0.53 1.324,1.747 0.792,2.716 -0.071,0.132 -0.157,0.253 -0.254,0.359l-1.88 2.52c-5.342,7.154 -11.208,15.01 -20.124,19.907 -6.695,3.676 -12.192,3.672 -15.991,1.822l0 -4.823c0.332,0.322 0.704,0.617 1.115,0.874 2.704,1.685 7.127,1.815 12.949,-1.381 8.15,-4.475 13.747,-11.97 18.839,-18.794 0.178,-0.234 0.348,-0.465 0.616,-0.818l-1.444 -0.82c-7.003,-3.952 -14.443,-8.158 -23.081,-9.324 -3.786,-0.514 -6.758,-0.206 -8.994,0.61l0 -4.183z"/>
  <path class="fil0" d="M81.109 60.672c-0.046,2.726 -1.091,5.528 -3.272,7.832 2.848,0.91 4.957,2.713 6.231,4.903 0.956,1.651 1.43,3.526 1.373,5.417 -0.058,1.893 -0.635,3.785 -1.775,5.472 -2.515,3.717 -7.741,6.443 -16.041,5.745 -10.133,-0.85 -18.687,-5.65 -26.478,-10.016 -1.011,-0.569 -2.012,-1.129 -2.872,-1.602l0.003 -0.007c-0.084,-0.046 -0.167,-0.1 -0.246,-0.16 -0.878,-0.665 -1.05,-1.917 -0.383,-2.795 0.606,-0.799 1.472,-1.965 2.346,-3.143 5.013,-6.76 10.343,-13.945 18.408,-18.92 7.301,-4.495 13.281,-4.46 17.267,-2.248 1.784,0.991 3.163,2.412 4.086,4.073 0.92,1.648 1.385,3.53 1.353,5.449l0 0zm-9.505 7.408c3.746,-1.745 5.463,-4.689 5.51,-7.47 0.023,-1.219 -0.271,-2.41 -0.849,-3.444 -0.57,-1.025 -1.428,-1.908 -2.537,-2.521 -2.846,-1.583 -7.368,-1.454 -13.227,2.152 -7.407,4.57 -12.503,11.438 -17.296,17.901 -0.325,0.436 -0.645,0.87 -0.992,1.333l0.892 0.501c7.426,4.162 15.579,8.739 24.847,9.516 6.623,0.556 10.608,-1.356 12.394,-3.989 0.709,-1.049 1.069,-2.206 1.102,-3.349 0.032,-1.145 -0.256,-2.285 -0.844,-3.3 -1.284,-2.207 -4.024,-3.792 -8.021,-3.515 -1.104,0.074 -2.059,-0.761 -2.132,-1.862 -0.056,-0.85 0.428,-1.608 1.153,-1.947l0 -0.006z"/>
  <path class="fil0" d="M70.256 30.141l-0.976 -1.795 -0.904 1.665c-0.259,0.57 -0.779,1.008 -1.441,1.138l-2.037 0.409 1.39 1.519c0.413,0.419 0.642,1.015 0.565,1.645l-0.25 2.1 1.82 -0.865c0.523,-0.249 1.149,-0.268 1.712,0l1.827 0.865 -0.251 -2.1 0 0c-0.063,-0.556 0.102,-1.137 0.508,-1.581l1.448 -1.583 -2.039 -0.409 0 -0.003c-0.563,-0.109 -1.074,-0.461 -1.372,-1.005l0 0zm0.786 -6.919l2.275 4.181 4.6 0.913c1.086,0.214 1.797,1.266 1.583,2.351 -0.08,0.401 -0.271,0.751 -0.542,1.026l-3.163 3.463 0.575 4.8c0.129,1.096 -0.654,2.092 -1.753,2.222 -0.428,0.051 -0.838,-0.035 -1.189,-0.227l-4.148 -1.97 -4.246 2.016c-0.999,0.473 -2.188,0.046 -2.661,-0.955 -0.168,-0.352 -0.224,-0.727 -0.18,-1.086l-0.002 0 0.574 -4.8 -3.216 -3.527c-0.744,-0.816 -0.686,-2.08 0.134,-2.828 0.28,-0.255 0.612,-0.413 0.962,-0.48l0 -0.005 4.602 -0.913 2.279 -4.195c0.528,-0.971 1.744,-1.33 2.713,-0.801 0.353,0.194 0.629,0.481 0.803,0.815l0 0z"/>
  <path class="fil0" d="M14.759 119.007c-0.489,0.986 -1.688,1.386 -2.677,0.892 -0.985,-0.492 -1.384,-1.692 -0.89,-2.675l2.959 -5.909c0.491,-0.986 1.69,-1.386 2.677,-0.893 0.987,0.494 1.386,1.694 0.892,2.677l-2.961 5.908 0 0z"/>
  <path class="fil0" d="M525.601 85.468c-2.938,-1.218 -5.034,-3.353 -6.185,-5.821 -0.807,-1.738 -1.14,-3.644 -0.971,-5.535 0.171,-1.898 0.857,-3.757 2.078,-5.384 1.528,-2.028 3.897,-3.692 7.164,-4.567l0 4.183c-1.787,0.656 -3.096,1.638 -3.968,2.795 -0.764,1.013 -1.189,2.166 -1.299,3.334 -0.103,1.167 0.118,2.37 0.632,3.482 0.811,1.747 2.387,3.238 4.635,4.023l0 7.053c-1.08,1.177 -1.666,2.524 -1.812,3.87 -0.128,1.168 0.072,2.327 0.565,3.363 0.301,0.63 0.719,1.216 1.247,1.733l0 4.823c-0.345,-0.167 -0.677,-0.352 -0.999,-0.552 -1.729,-1.079 -3.031,-2.574 -3.851,-4.284 -0.816,-1.704 -1.15,-3.609 -0.944,-5.507 0.274,-2.515 1.474,-5.02 3.708,-7.009l0 0z"/>
  <path class="fil0" d="M0 181.864l10.418 5.419c1.064,0.556 1.478,1.865 0.922,2.927 -0.097,0.188 -0.218,0.355 -0.359,0.501l0.005 0.006 -10.986 11.486 0 -6.301 5.843 -6.109 -5.843 -3.041 0 -4.888z"/>
  <path class="fil0" d="M0 195.589l7.803 -8.037c0.837,-0.856 2.214,-0.874 3.069,-0.038 0.225,0.216 0.392,0.471 0.501,0.742l0 0 15.824 39.592c0.338,0.834 0.12,1.75 -0.477,2.348l0.002 0.002 -26.722 26.69 0 -6.149 22.636 -22.61 -14.05 -35.149 -8.586 8.837 0 -6.228z"/>
  <path class="fil1" d="M1.242 208.359c2.329,-2.34 4.928,-2.565 5.804,-0.496 0.869,2.065 -0.311,5.623 -2.642,7.963 -1.546,1.542 -3.206,2.168 -4.404,1.815l0 -7.775c0.364,-0.534 0.781,-1.043 1.242,-1.507l0 0z"/>
  <path class="fil1" d="M8.737 226.079c2.341,-2.331 4.948,-2.547 5.817,-0.482 0.876,2.066 -0.315,5.619 -2.664,7.945 -2.346,2.327 -4.953,2.545 -5.822,0.484 -0.869,-2.06 0.324,-5.617 2.669,-7.947l0 0z"/>
  <path class="fil1" d="M0 225.982c0.26,0.223 0.478,0.522 0.637,0.895 0.552,1.319 0.258,3.253 -0.637,5.084l0 -5.979z"/>
  <path class="fil0" d="M449.473 206.278l40.305 -42.375c0.709,-0.753 1.827,-0.881 2.684,-0.373l35.225 18.334 0 4.888 -35.887 -18.675 -37.328 39.249 39.262 24.082 33.953 -35.506 0 6.301 -32.02 33.481c-0.764,0.795 -1.986,0.883 -2.855,0.246l-42.897 -26.308c-1.024,-0.628 -1.339,-1.963 -0.716,-2.983 0.081,-0.132 0.177,-0.252 0.279,-0.361l-0.005 0 0 0z"/>
  <path class="fil0" d="M492.231 232.101l35.456 -36.512 0 6.228 -31.415 32.346 14.005 33.967 17.41 -17.391 0 6.149 -16.642 16.624c-0.846,0.848 -2.223,0.841 -3.071,-0.008 -0.25,-0.247 -0.424,-0.533 -0.528,-0.841l-15.723 -38.164c-0.352,-0.853 -0.123,-1.798 0.508,-2.398l0 0z"/>
  <path class="fil0" d="M491.727 234.935l-36.284 -21.961 13.317 33.64 36.25 20.552 -13.283 -32.231 0 0zm-39.543 -29.019l42.415 25.677c0.412,0.251 0.711,0.616 0.88,1.029l0.005 -0.002 15.957 38.715c0.461,1.115 -0.069,2.388 -1.184,2.847 -0.707,0.293 -1.476,0.184 -2.065,-0.223l-42.243 -23.946c-0.454,-0.261 -0.781,-0.663 -0.958,-1.121l-15.958 -40.315c-0.445,-1.115 0.101,-2.374 1.216,-2.821 0.654,-0.264 1.37,-0.18 1.935,0.165l0 -0.005z"/>
  <path class="fil1" d="M469.597 199.953c2.194,-2.252 5.856,-2.981 8.169,-1.606 2.322,1.372 2.399,4.332 0.188,6.629 -2.213,2.292 -5.873,3.014 -8.169,1.605 -2.302,-1.406 -2.386,-4.37 -0.188,-6.628l0 0z"/>
  <path class="fil1" d="M488.705 180.318c2.198,-2.255 5.885,-3.047 8.253,-1.763 2.359,1.275 2.476,4.176 0.258,6.466 -2.214,2.297 -5.901,3.087 -8.245,1.768 -2.34,-1.321 -2.46,-4.213 -0.266,-6.471l0 0z"/>
  <path class="fil1" d="M489.444 211.865c2.235,-2.342 5.927,-3.128 8.249,-1.763 2.318,1.37 2.361,4.404 0.106,6.784 -2.259,2.373 -5.944,3.168 -8.241,1.761 -2.303,-1.404 -2.352,-4.441 -0.114,-6.782l0 0z"/>
  <path class="fil1" d="M508.914 191.487c2.235,-2.347 5.969,-3.21 8.325,-1.923 2.364,1.283 2.443,4.25 0.188,6.625 -2.253,2.383 -5.979,3.241 -8.32,1.92 -2.345,-1.319 -2.429,-4.277 -0.193,-6.622l0 0z"/>
  <path class="fil1" d="M508.665 228.72c2.333,-2.339 4.913,-2.569 5.777,-0.511 0.865,2.049 -0.334,5.604 -2.668,7.945 -2.333,2.334 -4.915,2.565 -5.775,0.519 -0.855,-2.051 0.332,-5.611 2.666,-7.953l0 0z"/>
  <path class="fil1" d="M527.687 217.641c-0.612,-0.18 -1.105,-0.616 -1.395,-1.314 -0.702,-1.653 -0.083,-4.278 1.395,-6.461l0 7.775z"/>
  <path class="fil1" d="M516.046 246.347c2.339,-2.329 4.941,-2.552 5.794,-0.501 0.864,2.058 -0.339,5.6 -2.686,7.927 -2.352,2.326 -4.937,2.553 -5.799,0.5 -0.86,-2.051 0.345,-5.594 2.691,-7.926l0 0z"/>
  <path class="fil1" d="M522.519 227.368c1.907,-1.91 3.998,-2.399 5.168,-1.386l0 5.979c-0.503,1.029 -1.193,2.022 -2.037,2.858 -2.336,2.336 -4.944,2.559 -5.797,0.51 -0.869,-2.055 0.334,-5.627 2.666,-7.961l0 0z"/>
  <path class="fil1" d="M477.773 237.389c2.278,1.298 4.774,4.07 5.579,6.189 0.808,2.108 -0.387,2.774 -2.659,1.476 -2.278,-1.296 -4.783,-4.079 -5.587,-6.184 -0.807,-2.116 0.387,-2.781 2.667,-1.481l0 0z"/>
  <path class="fil0" d="M96.199 307.622c-8.2,-8.205 -19.531,-13.277 -32.045,-13.277 -12.515,0 -23.846,5.072 -32.044,13.277 -8.202,8.199 -13.275,19.532 -13.275,32.043 0,12.515 5.073,23.839 13.275,32.045 8.198,8.2 19.529,13.271 32.044,13.271 12.514,0 23.845,-5.071 32.045,-13.271 8.2,-8.206 13.273,-19.53 13.273,-32.045 0,-12.511 -5.073,-23.844 -13.273,-32.043l0 0zm-32.045 -17.653c13.722,0 26.145,5.564 35.137,14.557 8.994,8.992 14.556,21.416 14.556,35.139 0,13.72 -5.562,26.141 -14.556,35.135 -8.992,8.992 -21.415,14.555 -35.137,14.555 -13.723,0 -26.147,-5.563 -35.138,-14.555 -8.996,-8.994 -14.556,-21.415 -14.556,-35.135 0,-13.723 5.56,-26.147 14.556,-35.139 8.991,-8.993 21.415,-14.557 35.138,-14.557l0 0z"/>
  <path class="fil0" d="M64.154 373.249c1.21,0 2.187,0.981 2.187,2.188 0,1.212 -0.977,2.186 -2.187,2.186 -7.957,0 -15.5,-2.489 -21.742,-6.853 -6.239,-4.357 -11.169,-10.587 -13.906,-18.07 -0.412,-1.134 0.174,-2.386 1.307,-2.8 1.134,-0.406 2.385,0.176 2.796,1.311 2.422,6.622 6.781,12.131 12.299,15.99 5.507,3.849 12.186,6.048 19.246,6.048l0 0z"/>
  <path class="fil0" d="M87.844 313.942c-3.875,-3.873 -9.229,-6.272 -15.145,-6.272 -5.915,0 -11.269,2.399 -15.148,6.272 -3.875,3.879 -6.272,9.236 -6.272,15.15 0,5.914 2.397,11.271 6.272,15.143 3.879,3.877 9.233,6.278 15.148,6.278 5.916,0 11.27,-2.401 15.145,-6.278 3.879,-3.872 6.274,-9.229 6.274,-15.143 0,-5.914 -2.395,-11.271 -6.274,-15.15l0 0zm-15.145 -10.647c7.124,0 13.574,2.883 18.239,7.556 4.668,4.667 7.557,11.115 7.557,18.241 0,7.118 -2.889,13.574 -7.557,18.24 -4.665,4.665 -11.115,7.555 -18.239,7.555 -7.123,0 -13.572,-2.89 -18.24,-7.555 -4.672,-4.666 -7.558,-11.122 -7.558,-18.24 0,-7.126 2.886,-13.574 7.558,-18.241 4.668,-4.673 11.117,-7.556 18.24,-7.556l0 0z"/>
  <path class="fil1" d="M71.15 343.769c-0.475,-0.994 -0.855,-1.97 -1.128,-2.933 -0.288,-0.99 -0.464,-1.982 -0.54,-2.958 0,-0.011 0,-0.032 0,-0.055 -0.068,-0.999 0.053,-2.065 0.357,-3.187 0.312,-1.12 0.811,-2.279 1.517,-3.479 0.686,-1.115 1.391,-2.218 2.119,-3.296 0.48,-0.692 0.876,-1.302 1.207,-1.823 0.311,-0.498 0.54,-0.921 0.682,-1.268 0.224,-0.508 0.331,-1.011 0.327,-1.502 -0.007,-0.486 -0.116,-0.971 -0.334,-1.455 -0.276,-0.598 -0.608,-1.108 -1.008,-1.516 -0.385,-0.399 -0.833,-0.719 -1.347,-0.95 -0.005,0 -0.007,0 -0.007,-0.007 -0.514,-0.235 -1.052,-0.351 -1.613,-0.364 -0.584,-0.023 -1.18,0.099 -1.81,0.336 -1.766,0.763 -2.623,2.004 -2.598,3.623 0.009,0.454 0.091,0.963 0.251,1.515 0.173,0.588 0.423,1.237 0.757,1.94 0.206,0.424 0.053,0.945 -0.333,1.175 0,0.005 0.002,0.005 0.002,0.005 -0.923,0.581 -1.822,1.2 -2.695,1.867 -0.358,0.302 -0.821,0.237 -1.034,-0.164 -0.017,-0.023 -0.03,-0.06 -0.042,-0.084 -0.521,-1.007 -0.93,-2.007 -1.214,-2.989 -0.3,-1.031 -0.468,-2.047 -0.501,-3.046 0.002,-0.02 0,-0.037 0,-0.057 -0.026,-1.762 0.38,-3.398 1.231,-4.853 0.438,-0.691 0.991,-1.343 1.668,-1.901 0.679,-0.558 1.493,-1.015 2.424,-1.402 1.578,-0.533 3.085,-0.714 4.509,-0.563 1.501,0.231 2.864,0.741 4.078,1.509 0.007,0.007 0.012,0.011 0.024,0.011 1.14,0.735 2.109,1.548 2.882,2.389 0.786,0.847 1.365,1.727 1.755,2.649 0.412,0.969 0.588,1.903 0.537,2.803 -0.048,0.904 -0.315,1.777 -0.78,2.662 -0.264,0.513 -0.656,1.115 -1.182,1.831 -0.499,0.694 -1.115,1.52 -1.859,2.473 -0.533,0.714 -1.064,1.453 -1.583,2.185 -0.336,0.504 -0.633,0.977 -0.876,1.417 -0.232,0.445 -0.413,0.85 -0.552,1.244 -0.007,0.017 -0.016,0.042 -0.023,0.054 -0.229,0.637 -0.359,1.256 -0.398,1.849 -0.019,0.208 -0.019,0.404 -0.01,0.6 1.796,-0.86 3.604,-1.715 5.442,-2.489 1.835,-0.776 3.706,-1.479 5.59,-2.146 0.408,-0.141 0.881,0.072 1.052,0.471 0.373,0.874 0.744,1.752 1.115,2.625 0.169,0.399 0,0.867 -0.387,1.041 -2.422,1.115 -4.849,2.237 -7.271,3.353 -2.424,1.115 -4.85,2.23 -7.274,3.345 -0.383,0.174 -0.864,0 -1.082,-0.396 -0.012,-0.028 -0.031,-0.06 -0.045,-0.089l0 0z"/>
  <path class="fil0" d="M30.801 407.687c-3.333,1.163 -6.162,3.896 -6.385,7.726 -0.009,0.733 -0.433,1.43 -1.145,1.757 -0.985,0.448 -2.148,0.012 -2.596,-0.969 -1.472,-3.212 -4.609,-4.498 -7.706,-4.308 -1.515,0.09 -3.019,0.533 -4.329,1.265 -1.261,0.71 -2.32,1.685 -3.006,2.879 -1.347,2.364 -1.237,5.72 1.694,9.769 4.761,6.58 12.995,10.705 20.492,14.459 0.462,0.234 0.927,0.464 1.398,0.702 0.436,-0.618 0.857,-1.207 1.274,-1.8 4.583,-6.473 9.456,-13.348 10.951,-20.9 1.006,-5.078 -0.224,-8.228 -2.389,-9.816 -1.071,-0.788 -2.382,-1.224 -3.776,-1.353 -1.469,-0.127 -3.017,0.081 -4.477,0.589l0 0zm-9.222 3.2c1.541,-3.34 4.559,-5.72 7.94,-6.904 1.979,-0.691 4.089,-0.969 6.109,-0.788 2.089,0.19 4.086,0.869 5.75,2.093 3.317,2.427 5.266,6.895 3.913,13.736 -1.655,8.374 -6.779,15.605 -11.6,22.409 -0.799,1.127 -1.588,2.243 -2.229,3.17 -0.568,0.818 -1.655,1.073 -2.52,0.619 -0.855,-0.436 -1.866,-0.947 -2.887,-1.455 -7.899,-3.958 -16.572,-8.302 -21.902,-15.671 -4,-5.526 -3.984,-10.399 -1.923,-14.004 1.056,-1.844 2.642,-3.321 4.502,-4.364 1.808,-1.017 3.892,-1.624 5.999,-1.751 3.187,-0.193 6.417,0.704 8.848,2.91l0 0z"/>
  <path class="fil0" d="M0 476.737l7.987 5.794c0.788,0.577 1.028,1.623 0.607,2.466l-8.594 17.773 0 -9.017 4.357 -9.009 -4.357 -3.159 0 -4.848z"/>
  <path class="fil0" d="M26.972 472.843c-1.186,-1.39 -2.078,-3.063 -2.552,-4.947 -0.827,-3.284 -0.243,-6.587 1.366,-9.278 1.61,-2.695 4.245,-4.767 7.525,-5.599 3.279,-0.823 6.586,-0.243 9.279,1.37 2.689,1.606 4.77,4.241 5.593,7.525 0.422,1.673 0.473,3.365 0.204,4.982 -0.042,0.255 -0.091,0.51 -0.151,0.759 2.58,-0.202 5.09,0.43 7.219,1.701 2.692,1.608 4.773,4.243 5.597,7.522 0.826,3.284 0.242,6.585 -1.367,9.283 -1.609,2.692 -4.245,4.769 -7.523,5.592 -1.26,0.315 -2.524,0.424 -3.768,0.347l1.84 2.865c0.584,0.909 0.317,2.121 -0.594,2.711 -0.182,0.112 -0.379,0.198 -0.579,0.246l0.005 0.007 -9.79 2.466c-1.056,0.262 -2.122,-0.377 -2.389,-1.43 -0.069,-0.28 -0.074,-0.563 -0.026,-0.837l0.339 -3.248c-1.078,0.686 -2.278,1.212 -3.574,1.54 -3.282,0.823 -6.589,0.242 -9.278,-1.371 -2.694,-1.604 -4.769,-4.24 -5.598,-7.526 -0.826,-3.277 -0.242,-6.58 1.367,-9.275 1.497,-2.505 3.886,-4.48 6.855,-5.405l0 0zm3.321 3.373c-0.544,0.025 -1.11,0.104 -1.692,0.25 -2.227,0.563 -4.016,1.975 -5.112,3.798 -1.091,1.831 -1.486,4.072 -0.927,6.302 0.563,2.23 1.974,4.019 3.8,5.115 1.829,1.091 4.072,1.485 6.302,0.929 1.136,-0.292 2.151,-0.788 3.015,-1.451 0.891,-0.678 1.63,-1.527 2.179,-2.484 0.295,-0.551 0.848,-0.945 1.513,-1.019 1.078,-0.121 2.042,0.655 2.162,1.733 0.021,0.183 0.035,0.317 0.051,0.396 0.035,0.186 0.047,0.389 0.028,0.587l-0.577 5.522 4.427 -1.11 -3.036 -4.739c-0.354,-0.526 -0.431,-1.189 -0.218,-1.769 0.039,-0.146 0.1,-0.285 0.176,-0.426 0.533,-0.938 1.729,-1.272 2.672,-0.739 0.921,0.521 1.938,0.867 2.997,1.013 1.013,0.139 2.074,0.085 3.148,-0.181 2.227,-0.564 4.016,-1.975 5.112,-3.801 1.09,-1.829 1.486,-4.072 0.925,-6.302 -0.559,-2.231 -1.972,-4.016 -3.797,-5.115 -1.83,-1.091 -4.072,-1.483 -6.303,-0.926 -0.246,0.066 -0.483,0.134 -0.714,0.219 -0.241,0.077 -0.468,0.17 -0.689,0.27l0 -0.003c-0.584,0.258 -1.286,0.23 -1.867,-0.146 -0.909,-0.589 -1.166,-1.801 -0.578,-2.711 0.617,-0.956 1.041,-2.035 1.231,-3.174 0.178,-1.079 0.141,-2.231 -0.151,-3.381 -0.56,-2.23 -1.97,-4.018 -3.798,-5.115 -1.828,-1.091 -4.072,-1.483 -6.302,-0.925 -2.227,0.561 -4.02,1.975 -5.112,3.797 -1.09,1.831 -1.488,4.079 -0.925,6.302 0.327,1.297 0.938,2.444 1.748,3.388 0.846,0.987 1.911,1.759 3.094,2.261l0 0c0.817,0.346 1.321,1.211 1.17,2.128 -0.176,1.066 -1.187,1.785 -2.253,1.611 -0.552,-0.091 -1.122,-0.128 -1.699,-0.104l0 0z"/>
  <path class="fil0" d="M513.858 449.056c-0.097,0 -0.192,-0.005 -0.292,-0.005l2.633 4.109c0.158,0.206 0.276,0.448 0.345,0.716 0.265,1.053 -0.377,2.119 -1.43,2.387l-12.867 3.234 -0.005 0c-0.211,0.055 -0.442,0.074 -0.67,0.05 -1.082,-0.11 -1.863,-1.073 -1.754,-2.153l0.545 -5.228c-0.835,0.477 -1.72,0.823 -2.629,1.054 -1.309,0.328 -2.674,0.406 -3.995,0.242 -1.321,-0.156 -2.607,-0.545 -3.773,-1.134 -2.491,-1.265 -4.473,-3.458 -5.199,-6.338 -2.208,-8.768 5.065,-19.324 12.372,-29.886l0.012 -0.025 0 0 0.065 -0.09c0.549,-0.807 1.62,-1.102 2.518,-0.65 11.482,5.873 22.966,11.739 25.184,20.543 0.667,2.654 0.187,5.159 -1.006,7.268 -1.006,1.762 -2.52,3.24 -4.278,4.27 -1.766,1.036 -3.776,1.631 -5.776,1.636l0 0zm-3.829 -5.423c1.088,1.044 2.441,1.495 3.824,1.495 1.301,-0.003 2.629,-0.399 3.804,-1.09 1.177,-0.69 2.183,-1.659 2.837,-2.823 0.722,-1.267 1.012,-2.776 0.611,-4.375 -1.701,-6.751 -11.47,-12.022 -21.63,-17.227 -6.487,9.393 -12.592,18.664 -10.899,25.415 0.431,1.701 1.638,3.017 3.17,3.793 0.763,0.388 1.594,0.641 2.456,0.744 0.853,0.105 1.725,0.056 2.575,-0.157 1.732,-0.436 3.343,-1.594 4.374,-3.629 0.493,-0.971 1.68,-1.358 2.642,-0.867 0.793,0.406 1.193,1.266 1.047,2.095l-0.836 7.994 7.509 -1.89 -4.489 -7.004c-0.584,-0.91 -0.315,-2.122 0.595,-2.704 0.776,-0.496 1.773,-0.382 2.41,0.23l0 0z"/>
  <path class="fil0" d="M497.382 492.152l12.362 -25.571c0.473,-0.975 1.648,-1.381 2.622,-0.913 0.116,0.06 0.219,0.121 0.324,0.198l14.997 10.871 0 4.848 -15.43 -11.186 -10.633 22.003 19.783 14.343 6.28 -12.992 0 9.017 -3.771 7.793c-0.465,0.977 -1.64,1.388 -2.618,0.917 -0.114,-0.056 -0.223,-0.121 -0.32,-0.195l-22.989 -16.672c-0.788,-0.57 -1.024,-1.616 -0.607,-2.461l0 0z"/>
  <path class="fil0" d="M331.417 512.605l-35.474 -7.132c-1.879,-0.382 -3.733,0.044 -5.217,1.029 -1.478,0.983 -2.588,2.533 -2.964,4.408l-3.374 16.779 4.64 0 3.194 -15.882c0.134,-0.644 0.518,-1.177 1.024,-1.516 0.515,-0.34 1.15,-0.491 1.796,-0.359l35.478 7.134c0.431,0.085 0.788,0.345 1.019,0.691 0.23,0.344 0.332,0.78 0.242,1.212l-1.753 8.72 4.645 0 1.574 -7.823c0.333,-1.669 -0.042,-3.317 -0.916,-4.629 -0.88,-1.318 -2.253,-2.299 -3.914,-2.632l0 0z"/>
  <path class="fil0" d="M304.083 522.259c0.974,-4.848 -6.564,-6.364 -7.541,-1.516 -0.971,4.844 6.565,6.358 7.541,1.516l0 0z"/>
  <path class="fil0" d="M269.196 500.092l-35.476 -7.132c-1.874,-0.382 -3.731,0.042 -5.212,1.03 -1.485,0.982 -2.589,2.533 -2.968,4.405l-5.889 29.294 4.641 0 5.711 -28.397c0.132,-0.642 0.512,-1.177 1.025,-1.514 0.512,-0.34 1.152,-0.486 1.794,-0.358l35.477 7.131c0.429,0.092 0.791,0.347 1.022,0.692 0.23,0.346 0.331,0.782 0.246,1.211l-4.274 21.235 4.642 0 4.089 -20.338c0.334,-1.665 -0.042,-3.313 -0.914,-4.629 -0.878,-1.314 -2.247,-2.295 -3.914,-2.63l0 0z"/>
  <path class="fil0" d="M241.858 509.745c0.978,-4.847 -6.559,-6.362 -7.533,-1.514 -0.977,4.841 6.559,6.355 7.533,1.514l0 0z"/>
  <path class="fil0" d="M250.277 520.428c0.974,-4.848 -6.561,-6.362 -7.536,-1.515 -0.974,4.843 6.561,6.362 7.536,1.515l0 0z"/>
  <path class="fil0" d="M284.388 0l-11.836 58.867c-0.34,1.662 0.037,3.316 0.915,4.63 0.872,1.317 2.249,2.298 3.913,2.633l36.238 7.289c1.663,0.33 3.309,-0.044 4.625,-0.917 1.314,-0.876 2.302,-2.253 2.635,-3.915l13.795 -68.587 -4.645 0 -13.608 67.69c-0.093,0.434 -0.346,0.792 -0.693,1.02 -0.351,0.234 -0.781,0.333 -1.212,0.243l-36.234 -7.286c-0.436,-0.088 -0.795,-0.344 -1.026,-0.691 -0.23,-0.345 -0.327,-0.777 -0.242,-1.212l12.015 -59.764 -4.64 0 0 0z"/>
  <path class="fil0" d="M325.822 32.154c1.233,0.246 2.433,-0.553 2.679,-1.782 0.25,-1.235 -0.551,-2.433 -1.782,-2.681l-43.75 -8.796c-1.23,-0.25 -2.43,0.547 -2.679,1.782 -0.248,1.227 0.552,2.429 1.782,2.678l43.75 8.799 0 0z"/>
  <path class="fil0" d="M320.26 17.491c0.976,-4.846 -6.554,-6.362 -7.532,-1.515 -0.976,4.848 6.565,6.363 7.532,1.515l0 0z"/>
  <path class="fil0" d="M316.111 40.145c0.974,-4.843 -6.565,-6.357 -7.539,-1.515 -0.969,4.848 6.561,6.362 7.539,1.515l0 0z"/>
  <path class="fil0" d="M295.478 35.997c0.975,-4.848 -6.564,-6.362 -7.533,-1.514 -0.975,4.845 6.557,6.36 7.533,1.514l0 0z"/>
  <path class="fil0" d="M312.419 58.512c0.971,-4.846 -6.563,-6.364 -7.539,-1.517 -0.975,4.85 6.564,6.364 7.539,1.517l0 0z"/>
  <path class="fil0" d="M291.786 54.361c0.976,-4.848 -6.564,-6.363 -7.539,-1.515 -0.974,4.846 6.563,6.36 7.539,1.515l0 0z"/>
  <path class="fil0" d="M219.651 0l-9.322 46.356c-0.336,1.663 0.04,3.312 0.916,4.629 0.874,1.314 2.248,2.295 3.912,2.633l36.24 7.286c1.664,0.336 3.314,-0.039 4.626,-0.915 1.318,-0.878 2.301,-2.25 2.635,-3.913l11.277 -56.076 -4.642 0 -11.097 55.178c-0.087,0.431 -0.343,0.794 -0.694,1.022 -0.342,0.229 -0.775,0.328 -1.206,0.241l-36.24 -7.287c-0.431,-0.084 -0.793,-0.346 -1.024,-0.689 -0.23,-0.349 -0.329,-0.781 -0.241,-1.212l9.501 -47.253 -4.641 0 0 0z"/>
  <path class="fil0" d="M263.601 19.639c1.231,0.25 2.431,-0.547 2.678,-1.782 0.25,-1.231 -0.55,-2.431 -1.779,-2.679l-43.749 -8.798c-1.233,-0.246 -2.431,0.55 -2.677,1.782 -0.252,1.233 0.547,2.434 1.78,2.678l43.747 8.799 0 0z"/>
  <path class="fil0" d="M258.042 4.98c0.975,-4.846 -6.561,-6.361 -7.535,-1.517 -0.974,4.848 6.559,6.364 7.535,1.517l0 0z"/>
  <path class="fil0" d="M241.587 34.826c0.975,-4.85 -6.559,-6.364 -7.535,-1.517 -0.976,4.846 6.563,6.364 7.535,1.517l0 0z"/>
  <path class="fil0" d="M393.304 466.435c8.027,1.66 18.615,5.152 29.882,10.084 11.264,4.932 21.016,10.356 27.67,15.125 5.998,4.302 9.38,7.708 8.726,9.199 -0.711,1.624 -5.97,1.661 -13.78,0.266 -8.024,-1.423 -18.399,-4.568 -29.293,-9.344 -10.895,-4.768 -20.241,-10.265 -26.731,-15.197 -6.32,-4.793 -9.858,-8.682 -9.15,-10.307 0.654,-1.49 5.454,-1.316 12.676,0.174l0 0zm31.391 6.641c-11.49,-5.034 -22.35,-8.604 -30.627,-10.312 -9.071,-1.872 -15.414,-1.358 -16.883,1.987 -1.472,3.364 2.553,8.902 10.322,14.805 6.733,5.107 16.356,10.774 27.491,15.652 11.146,4.884 21.83,8.114 30.148,9.593 9.604,1.71 16.411,0.915 17.882,-2.448 1.461,-3.344 -2.459,-8.357 -9.986,-13.755 -6.865,-4.929 -16.858,-10.491 -28.347,-15.522l0 0z"/>
  <path class="fil0" d="M380.313 466.771c0.418,-0.954 -0.018,-2.062 -0.962,-2.48 -0.954,-0.417 -2.062,0.019 -2.479,0.969l-6.466 14.761c-0.359,0.812 -0.093,1.734 0.581,2.25 11.968,10.822 24.85,19.403 38.727,25.561 13.932,6.172 28.852,9.894 44.837,10.972 0.813,0.056 1.536,-0.412 1.844,-1.115l0.007 0 6.464 -14.761c0.417,-0.95 -0.013,-2.062 -0.962,-2.479 -0.954,-0.411 -2.064,0.018 -2.48,0.971l-5.939 13.555c-15.041,-1.158 -29.098,-4.739 -42.253,-10.57 -13.157,-5.834 -25.416,-13.929 -36.838,-24.11l5.919 -13.524 0 0z"/>
  <path class="fil0" d="M442.566 514.861c-0.421,0.949 0.012,2.059 0.962,2.476 0.953,0.413 2.063,-0.016 2.48,-0.969l4.835 -11.041c0.417,-0.95 -0.019,-2.06 -0.969,-2.477 -0.951,-0.413 -2.061,0.016 -2.473,0.97l-4.835 11.041 0 0z"/>
  <path class="fil0" d="M430.742 512.182c-0.417,0.949 0.019,2.061 0.969,2.478 0.953,0.412 2.056,-0.018 2.475,-0.971l4.732 -10.804c0.418,-0.944 -0.02,-2.054 -0.97,-2.471 -0.946,-0.42 -2.052,0.016 -2.473,0.969l-4.733 10.799 0 0z"/>
  <path class="fil0" d="M408.739 504.523c-0.411,0.95 0.018,2.06 0.971,2.477 0.952,0.418 2.06,-0.018 2.478,-0.969l4.829 -11.034c0.42,-0.954 -0.013,-2.06 -0.964,-2.48 -0.95,-0.417 -2.058,0.019 -2.478,0.969l-4.836 11.037 0 0z"/>
  <path class="fil0" d="M389.846 494.682c-0.42,0.95 0.011,2.059 0.962,2.476 0.952,0.421 2.062,-0.017 2.479,-0.969l4.884 -11.15c0.421,-0.95 -0.019,-2.059 -0.969,-2.476 -0.953,-0.414 -2.06,0.015 -2.473,0.969l-4.883 11.15 0 0z"/>
  <path class="fil0" d="M377.968 485.208c-0.412,0.953 0.018,2.062 0.969,2.48 0.954,0.417 2.062,-0.019 2.48,-0.969l4.336 -9.901c0.413,-0.953 -0.016,-2.062 -0.969,-2.48 -0.95,-0.412 -2.06,0.019 -2.477,0.969l-4.339 9.901 0 0z"/>
  <path class="fil0" d="M371.477 485.827c-0.624,-0.83 -1.799,-0.994 -2.627,-0.369 -0.825,0.622 -0.989,1.806 -0.366,2.629 0.176,0.231 1.05,1.19 1.704,1.909 0.278,0.31 0.508,0.558 0.646,0.716 2.715,3.11 7.788,7.053 14.462,11.169 6.137,3.793 13.651,7.761 21.929,11.384 7.975,3.492 15.69,6.225 22.441,8.128 7.368,2.078 13.626,3.163 17.869,3.175l0.04 0c0.911,0 3.951,0.006 4.751,-0.097 1.026,-0.14 1.748,-1.078 1.608,-2.103 -0.134,-1.024 -1.075,-1.745 -2.097,-1.606 -0.51,0.067 -3.393,0.061 -4.255,0.054l-0.035 0c-3.916,-0.005 -9.812,-1.043 -16.865,-3.03 -6.563,-1.847 -14.101,-4.526 -21.95,-7.963 -8.149,-3.567 -15.498,-7.446 -21.473,-11.138 -6.353,-3.919 -11.12,-7.604 -13.599,-10.434 -0.042,-0.053 -0.341,-0.382 -0.696,-0.776 -0.59,-0.642 -1.371,-1.495 -1.487,-1.648l0 0z"/>
  <path class="fil0" d="M452.159 527.689l1.909 -4.352c0.411,-0.95 -0.018,-2.06 -0.97,-2.477 -0.953,-0.413 -2.061,0.016 -2.48,0.969l-2.563 5.86 4.104 0 0 0zm-80.65 -40.509c0.419,-0.954 -0.012,-2.062 -0.966,-2.48 -0.949,-0.417 -2.059,0.019 -2.476,0.969l-5.437 12.411c-0.357,0.807 -0.09,1.733 0.584,2.25 11.966,10.823 24.85,19.403 38.727,25.559 1.417,0.623 2.835,1.224 4.272,1.8l11.193 0c-4.757,-1.473 -9.406,-3.212 -13.945,-5.23 -13.163,-5.829 -25.421,-13.925 -36.844,-24.113l4.892 -11.166 0 0z"/>
  <path class="fil0" d="M441.183 527.689l1.884 -4.305c0.419,-0.949 -0.018,-2.059 -0.968,-2.476 -0.946,-0.419 -2.054,0.017 -2.474,0.969l-2.542 5.812 4.1 0 0 0z"/>
  <path class="fil0" d="M428.191 527.689l2.95 -6.744c0.419,-0.954 -0.017,-2.062 -0.962,-2.473 -0.95,-0.419 -2.06,0.012 -2.476,0.962l-3.615 8.255 4.103 0 0 0z"/>
  <path class="fil0" d="M400.972 522.581c-0.417,0.949 0.012,2.059 0.962,2.476 0.953,0.414 2.059,-0.016 2.478,-0.969l4.837 -11.041c0.412,-0.944 -0.019,-2.053 -0.969,-2.471 -0.951,-0.417 -2.061,0.019 -2.473,0.969l-4.835 11.036 0 0z"/>
  <path class="fil0" d="M382.07 512.739c-0.417,0.95 0.012,2.06 0.964,2.477 0.951,0.413 2.061,-0.016 2.478,-0.969l4.883 -11.15c0.42,-0.95 -0.016,-2.06 -0.969,-2.477 -0.95,-0.419 -2.053,0.018 -2.47,0.969l-4.886 11.15 0 0z"/>
  <path class="fil0" d="M370.2 503.267c-0.417,0.952 0.011,2.06 0.963,2.479 0.951,0.418 2.061,-0.02 2.478,-0.97l4.339 -9.901c0.417,-0.953 -0.019,-2.06 -0.969,-2.48 -0.953,-0.417 -2.061,0.02 -2.473,0.969l-4.338 9.903 0 0z"/>
  <path class="fil0" d="M404.838 476.64c4.156,1.147 9.732,3.17 15.755,5.805 6.019,2.638 11.287,5.365 14.944,7.642 2.883,1.795 4.781,2.635 4.732,2.744 -0.006,0.025 -2.199,-0.605 -5.763,-1.514 -4.141,-1.054 -9.583,-2.925 -15.405,-5.477 -5.817,-2.546 -10.882,-5.277 -14.462,-7.604 -3.087,-2 -5.038,-3.188 -5.025,-3.212 0.047,-0.109 1.95,0.714 5.224,1.616l0 0zm17.262 2.364c-6.156,-2.696 -11.918,-4.788 -16.256,-5.98 -5.212,-1.437 -8.855,-1.381 -9.673,0.489 -0.811,1.85 1.693,4.795 6.429,7.873 3.765,2.441 9.024,5.284 14.999,7.894 5.968,2.619 11.623,4.565 15.973,5.667 5.472,1.399 9.333,1.242 10.144,-0.605 0.818,-1.878 -1.611,-4.582 -6.204,-7.449 -3.818,-2.374 -9.255,-5.192 -15.412,-7.889l0 0z"/>
  <path class="fil0" d="M414.283 491.276c-0.441,0.933 -0.042,2.048 0.899,2.489 0.934,0.444 2.049,0.044 2.491,-0.897l1.854 -3.919c0.443,-0.934 0.035,-2.056 -0.897,-2.492 -0.934,-0.442 -2.057,-0.041 -2.489,0.897l-1.858 3.922 0 0z"/>
  <path class="fil0" d="M436.269 500.988c0.527,0.897 1.672,1.196 2.571,0.675 0.89,-0.529 1.193,-1.68 0.663,-2.57l-3.725 -6.371c-0.526,-0.897 -1.68,-1.192 -2.568,-0.67 -0.897,0.526 -1.193,1.676 -0.672,2.568l3.731 6.368 0 0z"/>
  <path class="fil0" d="M396.977 481.071c-1.011,0.223 -1.653,1.224 -1.435,2.236 0.218,1.013 1.217,1.655 2.234,1.437l7.206 -1.583c1.019,-0.219 1.661,-1.218 1.439,-2.231 -0.222,-1.011 -1.221,-1.653 -2.234,-1.435l-7.21 1.576 0 0z"/>
  <path class="fil0" d="M385.296 472.454c-1.038,-0.032 -1.905,0.788 -1.935,1.822 -0.028,1.038 0.788,1.903 1.822,1.928l12.492 0.334c1.035,0.025 1.904,-0.788 1.932,-1.829 0.024,-1.038 -0.787,-1.898 -1.823,-1.928l-12.488 -0.327 0 0z"/>
  <path class="fil0" d="M448.34 503.565c0.727,0.744 1.914,0.756 2.656,0.036 0.744,-0.726 0.757,-1.915 0.034,-2.661l-8.707 -8.956c-0.726,-0.739 -1.916,-0.757 -2.654,-0.03 -0.744,0.721 -0.759,1.915 -0.037,2.654l8.708 8.957 0 0z"/>
  <path class="fil0" d="M457.392 497.093c1.013,0.243 2.025,-0.376 2.274,-1.382 0.25,-1.005 -0.367,-2.023 -1.377,-2.273l-16.935 -4.133c-1.006,-0.247 -2.025,0.371 -2.268,1.377 -0.246,1.006 0.37,2.024 1.376,2.271l16.93 4.14 0 0z"/>
  <path class="fil0" d="M424.584 475.84c0.389,-0.957 -0.072,-2.053 -1.029,-2.44 -0.957,-0.389 -2.049,0.072 -2.442,1.035l-1.623 4.019c-0.389,0.957 0.072,2.052 1.031,2.439 0.957,0.389 2.052,-0.072 2.439,-1.029l1.624 -4.024 0 0z"/>
  <path class="fil0" d="M443.966 487.676c1.011,-0.225 1.653,-1.224 1.435,-2.238 -0.223,-1.009 -1.224,-1.653 -2.237,-1.433l-7.21 1.574c-1.012,0.223 -1.654,1.224 -1.436,2.236 0.222,1.013 1.225,1.655 2.234,1.437l7.214 -1.576 0 0z"/>
  <path class="fil0" d="M405.121 466.727c-0.526,-0.89 -1.678,-1.193 -2.57,-0.667 -0.897,0.528 -1.192,1.673 -0.667,2.57l3.73 6.369c0.525,0.89 1.676,1.193 2.568,0.667 0.897,-0.521 1.194,-1.673 0.666,-2.57l-3.727 -6.369 0 0z"/>
  <path class="fil0" d="M386.411 462.231c-0.864,-0.575 -2.032,-0.34 -2.601,0.528 -0.577,0.86 -0.34,2.028 0.529,2.598l14.517 9.642c0.867,0.575 2.031,0.34 2.605,-0.528 0.569,-0.865 0.334,-2.03 -0.526,-2.606l-14.524 -9.634 0 0z"/>
  <path class="fil0" d="M391.065 439.477l3.414 -2.649 0.356 4.169c0.008,0.589 0.29,1.162 0.809,1.521l3.546 2.473 -3.963 1.758c-0.51,0.205 -0.929,0.635 -1.103,1.199l-1.273 4.218 -2.799 -3.231c-0.352,-0.405 -0.885,-0.66 -1.467,-0.642l-4.278 0.134 2.234 -3.8 0 0c0.267,-0.448 0.34,-1.013 0.158,-1.546l-1.41 -4.181 4.218 0.934 0 -0.005c0.526,0.114 1.096,0.005 1.558,-0.352l0 0zm3.828 -7.715l-5.43 4.216 -6.61 -1.453c-1.014,-0.23 -2.02,0.407 -2.243,1.418 -0.084,0.375 -0.048,0.751 0.077,1.086l2.183 6.435 -3.528 5.992c-0.521,0.891 -0.222,2.043 0.675,2.569 0.347,0.206 0.734,0.287 1.101,0.25l6.686 -0.206 4.449 5.131c0.677,0.783 1.859,0.86 2.64,0.181 0.281,-0.241 0.467,-0.545 0.564,-0.863l0 0 2.011 -6.654 6.283 -2.795c0.946,-0.424 1.37,-1.533 0.953,-2.477 -0.146,-0.327 -0.376,-0.589 -0.651,-0.785l0 0 -5.547 -3.869 -0.59 -6.867c-0.084,-1.031 -0.993,-1.794 -2.023,-1.703 -0.381,0.03 -0.719,0.176 -1,0.394l0 0z"/>
  <path class="fil0" d="M404.243 431.52c0.057,1.035 0.934,1.829 1.963,1.776 1.036,-0.056 1.831,-0.934 1.775,-1.963l-0.32 -6.188c-0.048,-1.031 -0.932,-1.824 -1.963,-1.775 -1.031,0.053 -1.826,0.934 -1.777,1.968l0.322 6.182 0 0z"/>
  <path class="fil0" d="M406.213 0c12.695,5.103 26.2,8.206 40.565,9.175 0.81,0.054 1.532,-0.412 1.842,-1.115l0.005 0.003 3.534 -8.063 -4.104 0 -2.339 5.346c-9.852,-0.762 -19.282,-2.558 -28.31,-5.346l-11.193 0 0 0z"/>
  <path class="fil0" d="M434.789 5.229c-0.417,0.952 0.02,2.06 0.964,2.477 0.952,0.413 2.062,-0.019 2.479,-0.967l2.951 -6.739 -4.1 0 -2.294 5.229 0 0z"/>
  <path class="fil0" d="M422.967 2.55c-0.416,0.952 0.018,2.06 0.971,2.477 0.95,0.417 2.06,-0.016 2.472,-0.967l1.781 -4.06 -4.103 0 -1.121 2.55 0 0z"/>
  <path class="fil0" d="M92.384 470.407l64.483 -23.537c0.795,-0.29 1.661,-0.048 2.19,0.545l23.626 22.571c0.634,0.607 0.787,1.523 0.449,2.28l-20.247 55.423 -4.283 0 20.342 -55.696 -21.866 -20.893 -62.129 22.675 -3.327 29.571 42.053 24.343 -8.057 0 -37.158 -21.514c-0.716,-0.412 -1.082,-1.2 -0.998,-1.968l0 0 3.61 -32.128c0.088,-0.788 0.619,-1.419 1.314,-1.672l-0.002 0 0 0z"/>
  <path class="fil0" d="M178.708 469.453c1.048,-0.387 2.209,0.158 2.591,1.207 0.384,1.048 -0.156,2.205 -1.206,2.587l-90.015 32.85c-1.049,0.382 -2.209,-0.156 -2.591,-1.206 -0.385,-1.047 0.158,-2.206 1.205,-2.593l90.016 -32.845 0 0z"/>
  <path class="fil0" d="M152.811 481.096c0,-1.116 0.908,-2.013 2.023,-2.013 1.113,0 2.016,0.903 2.014,2.018l-0.125 46.588 -4.04 0 0.128 -46.593 0 0z"/>
  <path class="fil0" d="M155.972 479.44c0.918,0.63 1.152,1.886 0.517,2.799 -0.628,0.922 -1.884,1.152 -2.802,0.522l-29.51 -20.3c-0.915,-0.637 -1.15,-1.891 -0.521,-2.805 0.635,-0.917 1.889,-1.151 2.808,-0.521l29.508 20.305 0 0z"/>
  <path class="fil0" d="M156.837 481.257c-0.088,1.11 -1.057,1.941 -2.163,1.851 -1.112,-0.086 -1.937,-1.056 -1.852,-2.165l2.568 -32.013c0.088,-1.11 1.057,-1.934 2.165,-1.849 1.11,0.091 1.938,1.062 1.852,2.169l-2.57 32.007 0 0z"/>
  <path class="fil0" d="M114.858 496.947c-0.719,-0.848 -0.612,-2.121 0.239,-2.842 0.852,-0.721 2.129,-0.611 2.846,0.237l28.23 33.347 -5.289 0 -26.026 -30.742 0 0z"/>
  <path class="fil0" d="M118.348 496.172c-0.289,1.078 -1.395,1.715 -2.472,1.423 -1.074,-0.291 -1.714,-1.399 -1.423,-2.472l9.369 -34.885c0.29,-1.075 1.4,-1.717 2.475,-1.425 1.076,0.29 1.713,1.4 1.424,2.472l-9.373 34.887 0 0z"/>
  <path class="fil0" d="M117.085 493.341c0.777,0.795 0.763,2.072 -0.032,2.855 -0.798,0.776 -2.077,0.757 -2.855,-0.037l-21.125 -21.584c-0.777,-0.8 -0.763,-2.079 0.036,-2.855 0.798,-0.781 2.073,-0.763 2.853,0.032l21.123 21.589 0 0z"/>
  <path class="fil0" d="M178.708 453.019c0.384,1.05 -0.155,2.213 -1.206,2.595 -1.049,0.381 -2.21,-0.159 -2.59,-1.205l-4.958 -13.581c-0.382,-1.049 0.156,-2.211 1.206,-2.595 1.052,-0.38 2.212,0.159 2.595,1.207l4.953 13.579 0 0z"/>
  <path class="fil0" d="M177.349 443.67c1.046,-0.383 2.207,0.157 2.591,1.205 0.383,1.048 -0.157,2.213 -1.206,2.593l-7.415 2.71c-1.052,0.38 -2.213,-0.158 -2.595,-1.206 -0.38,-1.049 0.159,-2.211 1.205,-2.595l7.42 -2.707 0 0z"/>
  <path class="fil0" d="M162.531 440.402c0.384,1.05 -0.156,2.213 -1.206,2.595 -1.051,0.383 -2.212,-0.159 -2.592,-1.205l-2.731 -7.478c-0.382,-1.055 0.156,-2.212 1.206,-2.594 1.047,-0.382 2.208,0.158 2.593,1.205l2.73 7.477 0 0z"/>
  <path class="fil0" d="M160.616 434.714c1.048,-0.384 2.209,0.158 2.594,1.205 0.384,1.05 -0.157,2.212 -1.21,2.592l-4.084 1.492c-1.047,0.383 -2.208,-0.158 -2.593,-1.205 -0.382,-1.048 0.158,-2.213 1.206,-2.595l4.087 -1.489 0 0z"/>
  <path class="fil0" d="M162.885 0l-5.678 15.547c-0.382,1.045 -1.536,1.584 -2.581,1.204 -0.11,-0.041 -0.218,-0.094 -0.316,-0.15l-0.006 0.005 -28.686 -16.606 8.057 0 20.577 11.912 4.35 -11.912 4.283 0 0 0z"/>
  <path class="fil0" d="M156.723 0l-0.035 13.53c-0.004,1.115 -0.908,2.019 -2.023,2.017 -1.115,0 -2.019,-0.907 -2.019,-2.021l0.037 -13.526 4.04 0 0 0z"/>
  <path class="fil0" d="M146.173 0l10.613 12.538c0.72,0.853 0.611,2.125 -0.239,2.844 -0.851,0.718 -2.126,0.614 -2.846,-0.239l-12.817 -15.143 5.289 0 0 0z"/>
  <path class="fil0" d="M341.906 385.642c-8.454,-8.455 -20.124,-13.679 -33.026,-13.679 -12.895,0 -24.571,5.224 -33.023,13.679 -8.455,8.452 -13.681,20.13 -13.681,33.027 0,12.894 5.226,24.57 13.681,33.024 8.452,8.452 20.128,13.676 33.023,13.676 12.902,0 24.572,-5.224 33.026,-13.676 8.453,-8.454 13.685,-20.13 13.685,-33.024 0,-12.897 -5.232,-24.575 -13.685,-33.027l0 0zm-33.026 -17.677c13.999,0 26.674,5.678 35.853,14.853 9.173,9.174 14.85,21.851 14.85,35.851 0,13.997 -5.677,26.674 -14.85,35.849 -9.179,9.173 -21.854,14.851 -35.853,14.851 -13.996,0 -26.675,-5.678 -35.848,-14.851 -9.175,-9.175 -14.851,-21.852 -14.851,-35.849 0,-14 5.676,-26.677 14.851,-35.851 9.173,-9.175 21.852,-14.853 35.848,-14.853l0 0z"/>
  <path class="fil0" d="M307.4 371.115c0,-1.103 0.901,-2 2,-2 1.103,0 1.995,0.897 1.995,2l0 11.546c0,1.103 -0.892,1.991 -1.995,1.991 -1.099,0 -2,-0.888 -2,-1.991l0 -11.546z"/>
  <path class="fil0" d="M282.116 378.241c-0.546,-0.95 -0.219,-2.169 0.731,-2.714 0.957,-0.546 2.169,-0.219 2.714,0.735l5.982 10.367c0.546,0.952 0.219,2.169 -0.733,2.714 -0.952,0.545 -2.171,0.218 -2.716,-0.732l-5.978 -10.37 0 0z"/>
  <path class="fil0" d="M267.032 397.378c-0.964,-0.526 -1.322,-1.732 -0.793,-2.695 0.524,-0.969 1.733,-1.321 2.695,-0.8l9.63 5.236c0.964,0.526 1.321,1.733 0.792,2.702 -0.526,0.962 -1.733,1.321 -2.695,0.793l-9.629 -5.236 0 0z"/>
  <path class="fil0" d="M260.809 421.103c-1.101,0 -1.991,-0.892 -1.991,-1.988 0,-1.103 0.89,-1.994 1.991,-1.994l11.615 0c1.097,0 1.987,0.891 1.987,1.994 0,1.096 -0.89,1.988 -1.987,1.988l-11.615 0 0 0z"/>
  <path class="fil0" d="M310.765 466.181c0,1.103 -0.89,2 -1.994,2 -1.103,0 -1.999,-0.897 -1.999,-2l0 -10.912c0,-1.103 0.896,-1.995 1.999,-1.995 1.104,0 1.994,0.892 1.994,1.995l0 10.912z"/>
  <path class="fil0" d="M336.059 459.056c0.545,0.955 0.218,2.176 -0.739,2.721 -0.958,0.545 -2.175,0.218 -2.723,-0.739l-6.275 -10.963c-0.546,-0.959 -0.213,-2.174 0.744,-2.72 0.949,-0.554 2.177,-0.22 2.722,0.739l6.271 10.962 0 0z"/>
  <path class="fil0" d="M351.207 439.954c0.941,0.564 1.249,1.788 0.688,2.735 -0.565,0.937 -1.789,1.247 -2.735,0.682l-9.47 -5.676c-0.949,-0.564 -1.256,-1.789 -0.693,-2.733 0.564,-0.947 1.788,-1.249 2.735,-0.684l9.475 5.676 0 0z"/>
  <path class="fil0" d="M357.358 416.188c1.11,0 2,0.892 2,1.995 0,1.103 -0.89,2 -2,2l-11.95 0c-1.103,0 -1.993,-0.897 -1.993,-2 0,-1.103 0.89,-1.995 1.993,-1.995l11.95 0 0 0z"/>
  <path class="fil0" d="M331.919 376.121c0.545,-0.959 1.764,-1.289 2.714,-0.753 0.958,0.547 1.298,1.759 0.753,2.716l-5.976 10.52c-0.545,0.952 -1.757,1.291 -2.716,0.746 -0.956,-0.54 -1.289,-1.757 -0.751,-2.714l5.976 -10.515 0 0z"/>
  <path class="fil0" d="M349.209 393.487c0.938,-0.58 2.169,-0.283 2.744,0.655 0.577,0.941 0.285,2.17 -0.652,2.747l-9.481 5.829c-0.938,0.574 -2.169,0.283 -2.743,-0.654 -0.575,-0.941 -0.286,-2.169 0.655,-2.751l9.477 -5.826 0 0z"/>
  <path class="fil0" d="M286.55 461.026c-0.514,0.969 -1.715,1.344 -2.69,0.835 -0.974,-0.515 -1.345,-1.72 -0.837,-2.698l5.532 -10.511c0.512,-0.977 1.717,-1.346 2.691,-0.838 0.976,0.514 1.344,1.722 0.836,2.692l-5.532 10.52 0 0z"/>
  <path class="fil0" d="M269.813 445.197c-0.937,0.57 -2.165,0.267 -2.733,-0.674 -0.57,-0.937 -0.268,-2.156 0.674,-2.726l9.623 -5.831c0.937,-0.568 2.161,-0.265 2.732,0.674 0.568,0.939 0.269,2.158 -0.673,2.728l-9.623 5.829 0 0z"/>
  <path class="fil0" d="M332.75 394.798c-6.108,-6.109 -14.543,-9.891 -23.87,-9.891 -9.317,0 -17.76,3.782 -23.868,9.891 -6.109,6.107 -9.89,14.55 -9.89,23.871 0,9.318 3.781,17.758 9.89,23.867 6.108,6.109 14.551,9.889 23.868,9.889 9.327,0 17.762,-3.78 23.87,-9.889 6.109,-6.109 9.889,-14.549 9.889,-23.867 0,-9.321 -3.78,-17.764 -9.889,-23.871l0 0zm-23.87 -13.882c10.422,0 19.864,4.222 26.694,11.057 6.835,6.83 11.058,16.272 11.058,26.696 0,10.421 -4.223,19.862 -11.058,26.69 -6.83,6.837 -16.272,11.06 -26.694,11.06 -10.424,0 -19.864,-4.223 -26.693,-11.06 -6.828,-6.828 -11.06,-16.269 -11.06,-26.69 0,-10.424 4.232,-19.866 11.06,-26.696 6.829,-6.835 16.269,-11.057 26.693,-11.057l0 0z"/>
  <path class="fil1" d="M314.441 397.851l0.365 0.116c0.997,0.303 1.558,1.363 1.256,2.364l-11.295 36.879c-0.311,0.994 -1.37,1.556 -2.364,1.254l-0.364 -0.109c-0.994,-0.308 -1.563,-1.37 -1.256,-2.364l11.296 -36.884c0.306,-0.994 1.37,-1.56 2.362,-1.256l0 0z"/>
  <path class="fil1" d="M288.126 412.099l0.114 -0.359c0.306,-0.994 1.365,-1.564 2.362,-1.252l36.884 11.294c0.99,0.302 1.557,1.37 1.252,2.364l-0.109 0.364c-0.309,0.992 -1.368,1.555 -2.362,1.252l-36.88 -11.296c-1.001,-0.307 -1.564,-1.368 -1.261,-2.367l0 0z"/>
  <path class="fil1" d="M310.058 412.838c2.857,0.872 4.489,3.822 3.648,6.585 -0.851,2.77 -3.854,4.299 -6.717,3.418 -2.865,-0.873 -4.496,-3.823 -3.653,-6.593 0.849,-2.763 3.853,-4.29 6.722,-3.41l0 0z"/>
  <path class="fil1" d="M327.908 418.612c2.862,0.88 4.496,3.83 3.646,6.593 -0.847,2.763 -3.853,4.297 -6.714,3.417 -2.865,-0.877 -4.494,-3.829 -3.648,-6.592 0.845,-2.763 3.851,-4.29 6.716,-3.418l0 0z"/>
  <path class="fil1" d="M315.534 394.942c2.86,0.879 4.496,3.831 3.65,6.593 -0.848,2.763 -3.854,4.298 -6.716,3.419 -2.862,-0.878 -4.498,-3.831 -3.646,-6.594 0.84,-2.764 3.852,-4.29 6.712,-3.418l0 0z"/>
  <path class="fil1" d="M292.768 407.849c2.86,0.881 4.495,3.831 3.648,6.594 -0.848,2.762 -3.854,4.291 -6.714,3.418 -2.86,-0.877 -4.496,-3.831 -3.648,-6.594 0.844,-2.764 3.854,-4.296 6.714,-3.418l0 0z"/>
  <path class="fil1" d="M304.447 431.15c2.857,0.878 4.492,3.831 3.646,6.594 -0.849,2.764 -3.853,4.29 -6.715,3.418 -2.865,-0.88 -4.496,-3.831 -3.654,-6.593 0.848,-2.765 3.854,-4.298 6.723,-3.419l0 0z"/>
  <path class="fil1" d="M292.537 395.331c2.194,0 3.975,1.866 3.975,4.168 0,2.303 -1.781,4.169 -3.975,4.169 -2.193,0 -3.968,-1.866 -3.968,-4.169 0,-2.302 1.775,-4.168 3.968,-4.168l0 0z"/>
  <path class="fil0" d="M415.175 134.968c-0.007,-0.005 -0.017,-0.019 -0.007,-0.005l0 0.01 0.007 -0.005 0 0zm-15.421 -3.395c4.561,1.269 9.175,2.363 11.349,2.584 0.727,-5.43 8.035,-15.744 17.35,-25.965 10.259,-11.247 22.988,-22.678 31.776,-27.28 1.691,-0.885 3.254,-1.532 4.649,-1.9l0 0.007c0.327,-0.086 0.679,-0.093 1.029,-0.007l5.05 1.272c0.829,-1.228 1.822,-3.055 2.797,-5.016 2.146,-4.305 4.14,-9.093 4.383,-9.97 0.169,-0.616 0.32,-1.24 0.295,-1.696 -0.017,-0.262 -0.121,-0.517 -0.376,-0.74 -2.392,-2.072 -12.652,-4.604 -23.512,-7.279 -12.997,-3.201 -26.813,-6.605 -30.824,-10.459 -0.534,-0.51 -1.036,-1.069 -1.516,-1.606 -0.552,-0.615 -1.041,-1.182 -1.157,-1.305 -0.484,0.034 -1.423,0.704 -2.511,1.478 -0.446,0.325 -0.918,0.658 -1.488,1.032l0 0 -0.007 0.007c-1.013,0.656 -2.012,1.444 -3,2.359 -0.987,0.92 -1.981,1.986 -2.968,3.196 -1.029,1.252 -1.977,2.496 -2.837,3.729 -0.883,1.266 -1.702,2.549 -2.448,3.845 -0.751,1.288 -1.371,2.463 -1.859,3.528 -0.462,1.001 -0.808,1.916 -1.038,2.748 -0.38,2.208 -0.303,3.919 0.237,5.131 0.461,1.032 1.358,1.732 2.684,2.104 0.758,0.209 1.385,0.311 1.879,0.307 0.327,0 0.564,-0.04 0.698,-0.121l0.004 0.004c0.315,-0.196 0.728,-0.53 1.243,-1.013 0.558,-0.532 1.165,-1.172 1.819,-1.927l0.016 -0.026c0.485,-0.605 0.948,-1.126 1.389,-1.562 0.486,-0.482 0.954,-0.869 1.418,-1.17 0.508,-0.322 1.047,-0.571 1.636,-0.744 0.582,-0.17 1.168,-0.265 1.776,-0.29l0 0.002c0.563,-0.021 1.133,0.007 1.728,0.086 0.545,0.069 1.131,0.19 1.773,0.355 0.473,0.118 1.057,0.259 1.741,0.421 0.538,0.125 1.24,0.279 2.048,0.459l0.061 0.012c0.442,0.088 1.029,0.229 1.574,0.354l0.129 0.031c0.276,0.069 0.672,0.162 1.205,0.305 0.684,0.179 1.199,0.311 1.382,0.362 3.144,0.876 5.478,1.882 6.985,3.011 2.056,1.539 2.8,3.332 2.237,5.374l-0.012 -0.005c-0.186,0.679 -0.714,1.245 -1.442,1.442 -3.103,0.857 -20.39,14.561 -33.55,28.726 -7.668,8.249 -13.814,16.516 -14.596,22.157 0.46,0.206 1.454,0.596 2.779,1.096 2.149,0.816 5.022,1.722 8.022,2.557l0 0zm14.605 6.164c-0.063,0.033 -0.128,0.063 -0.202,0.09 -0.194,0.084 -0.393,0.135 -0.593,0.16 -2.589,0.452 -8.957,-0.755 -14.925,-2.412 -3.008,-0.837 -6,-1.789 -8.369,-2.686 -2.696,-1.024 -4.666,-2.1 -5.224,-3.078 -0.29,-0.514 -0.387,-1.05 -0.285,-1.606 0.51,-6.742 7.266,-16.135 15.743,-25.259 12.034,-12.953 27.846,-25.647 33.735,-29.059 -0.109,-0.106 -0.248,-0.222 -0.412,-0.343 -1.078,-0.813 -2.95,-1.587 -5.611,-2.327 -0.828,-0.231 -1.217,-0.335 -1.309,-0.359 -0.432,-0.113 -0.812,-0.208 -1.127,-0.283l-0.116 -0.025c-0.412,-0.098 -0.859,-0.202 -1.453,-0.32 -0.044,-0.009 -0.086,-0.021 -0.132,-0.034 -0.693,-0.154 -1.37,-0.306 -2.1,-0.475 -0.635,-0.149 -1.24,-0.295 -1.835,-0.444 -0.424,-0.113 -0.842,-0.196 -1.261,-0.25 -0.369,-0.05 -0.709,-0.067 -1.029,-0.051l-0.019 0 0 0.001c-0.305,0.013 -0.551,0.046 -0.753,0.104 -0.199,0.062 -0.387,0.148 -0.568,0.268 -0.208,0.13 -0.447,0.336 -0.729,0.615 -0.327,0.32 -0.682,0.723 -1.071,1.214 -0.044,0.051 -0.084,0.1 -0.124,0.146 -0.796,0.918 -1.499,1.66 -2.106,2.234 -0.707,0.672 -1.369,1.187 -1.988,1.56l-0.023 0.012 0.007 0.004c-0.782,0.455 -1.704,0.689 -2.763,0.696 -0.892,0.004 -1.898,-0.146 -3.02,-0.459 -2.582,-0.717 -4.364,-2.186 -5.358,-4.411 -0.9,-2.014 -1.059,-4.593 -0.489,-7.734 0.006,-0.065 0.025,-0.123 0.037,-0.182l-0.007 -0.005c0.278,-0.995 0.709,-2.121 1.286,-3.372 0.543,-1.191 1.223,-2.483 2.033,-3.88 0.813,-1.407 1.692,-2.783 2.63,-4.133 0.966,-1.379 1.979,-2.713 3.031,-3.997 1.078,-1.319 2.209,-2.52 3.377,-3.604 1.15,-1.071 2.331,-2.005 3.539,-2.788l0 0c0.424,-0.28 0.897,-0.616 1.346,-0.941 1.978,-1.411 3.658,-2.615 5.869,-2.171 0.049,0.009 0.1,0.022 0.148,0.034l0 -0.005c1.145,0.322 2.105,1.398 3.161,2.576 0.424,0.475 0.876,0.975 1.287,1.374 3.221,3.096 16.487,6.361 28.958,9.435 11.356,2.799 22.087,5.443 25.222,8.157 1.231,1.067 1.713,2.32 1.792,3.625 0.067,1.115 -0.163,2.123 -0.424,3.064 -0.271,0.987 -2.406,6.168 -4.665,10.696 -1.423,2.858 -2.928,5.52 -4.138,6.885 -0.553,0.635 -1.413,0.851 -2.169,0.614l-5.712 -1.441c-0.993,0.311 -2.093,0.788 -3.289,1.412 -8.362,4.379 -20.664,15.453 -30.644,26.401 -9.696,10.638 -17.168,20.847 -16.343,23.988 0.007,0.007 0,0.005 0,0l-0.007 0.005c0.521,0.989 0.153,2.212 -0.818,2.757l0.009 0.007 0 0z"/>
  <path class="fil0" d="M435.111 141.68c-0.309,1.103 -1.455,1.752 -2.556,1.445 -1.108,-0.308 -1.759,-1.455 -1.451,-2.558l4.53 -16.29c0.307,-1.106 1.454,-1.752 2.555,-1.446 1.109,0.306 1.751,1.453 1.448,2.558l-4.526 16.291 0 0z"/>
  <path class="fil0" d="M440.378 132.212c1.104,0.311 1.752,1.455 1.447,2.557 -0.31,1.105 -1.453,1.756 -2.556,1.445l-8.904 -2.472c-1.106,-0.306 -1.75,-1.453 -1.445,-2.557 0.309,-1.107 1.453,-1.75 2.555,-1.444l8.903 2.471 0 0z"/>
  <path class="fil0" d="M451.607 120.965c-0.303,1.107 -1.45,1.75 -2.558,1.446 -1.103,-0.308 -1.75,-1.455 -1.442,-2.558l2.049 -7.382c0.308,-1.105 1.453,-1.748 2.558,-1.444 1.101,0.306 1.751,1.453 1.449,2.558l-2.056 7.38 0 0z"/>
  <path class="fil0" d="M453.206 115.279c1.104,0.306 1.752,1.449 1.444,2.557 -0.312,1.105 -1.455,1.75 -2.56,1.444l-4.029 -1.122c-1.108,-0.304 -1.75,-1.449 -1.448,-2.558 0.308,-1.104 1.455,-1.748 2.558,-1.444l4.035 1.123 0 0z"/>
  <path class="fil0" d="M424.079 99.701c0.804,-0.807 2.113,-0.807 2.92,-0.003 0.806,0.807 0.809,2.116 0.005,2.923 -4.582,4.586 -8.997,9.442 -12.751,14.026 -3.558,4.341 -6.453,8.369 -8.265,11.606 -0.549,1 -1.817,1.356 -2.811,0.798 -0.999,-0.554 -1.358,-1.815 -0.8,-2.814 1.947,-3.485 4.981,-7.719 8.665,-12.218 3.774,-4.614 8.289,-9.57 13.037,-14.318l0 0z"/>
  <path class="fil0" d="M410.412 58.276c0.805,-0.807 2.114,-0.807 2.921,-0.002 0.811,0.806 0.811,2.116 0.004,2.924 -1.029,1.034 -2.047,2.154 -2.932,3.234 -0.8,0.978 -1.442,1.86 -1.815,2.538 -0.56,0.999 -1.821,1.358 -2.82,0.801 -1.001,-0.556 -1.358,-1.816 -0.799,-2.818 0.516,-0.925 1.297,-2.014 2.226,-3.145 0.907,-1.114 2.021,-2.338 3.215,-3.532l0 0z"/>
  <path class="fil0" d="M400.53 320.213l24.794 3.987c-1.289,13.219 0.758,23.415 4.588,30.865 2.517,4.884 5.806,8.597 9.429,11.209 3.673,2.648 7.689,4.169 11.624,4.642 4.174,0.502 8.258,-0.169 11.748,-1.922 0.056,-0.016 0.116,-0.048 0.172,-0.077 2.114,-1.086 4.114,-2.613 5.822,-4.528 2.95,-3.289 5.066,-7.748 5.534,-13.162 0.445,-5.277 -0.686,-11.453 -4.213,-18.294 -3.212,-6.24 -8.418,-13.063 -16.228,-20.287l14.997 -20.253 6.957 5.152 -7.406 10.047 0 0c-0.545,0.739 -0.55,1.775 0.044,2.533l0.271 0.339 0 0c0.085,0.109 0.181,0.206 0.291,0.296 4.569,3.854 8.763,8.272 12.274,12.846 3.465,4.52 6.265,9.211 8.082,13.679 4.14,10.16 3.896,20.972 0.163,30.251 -3.73,9.252 -10.949,16.979 -20.76,20.979 -9.817,3.998 -20.378,3.519 -29.509,-0.493 -9.159,-4.024 -16.891,-11.586 -21.03,-21.748 -1.819,-4.455 -3.096,-9.751 -3.775,-15.39 -0.691,-5.68 -0.782,-11.717 -0.223,-17.618 0.167,-1.128 -0.601,-2.186 -1.733,-2.368l-13.29 -2.14 1.377 -8.545 0 0zm27.419 0.181l-28.816 -4.633c-1.138,-0.181 -2.21,0.586 -2.392,1.725l-2.035 12.665c-0.19,1.14 0.586,2.214 1.726,2.395l13.44 2.162c-0.405,5.611 -0.26,11.296 0.387,16.677 0.735,6.042 2.097,11.707 4.037,16.471 4.564,11.192 13.107,19.543 23.232,23.992 10.14,4.447 21.867,4.98 32.761,0.536 10.901,-4.439 18.912,-13.016 23.051,-23.285 4.131,-10.254 4.406,-22.199 -0.159,-33.397 -1.943,-4.768 -4.93,-9.785 -8.645,-14.629 -3.389,-4.424 -7.382,-8.693 -11.727,-12.494l7.544 -10.234c0.688,-0.929 0.486,-2.23 -0.443,-2.916l-10.306 -7.636c-0.927,-0.684 -2.237,-0.489 -2.921,0.437l-17.361 23.459c-0.648,0.872 -0.51,2.084 0.285,2.791l-0.005 0c8.217,7.353 13.547,14.188 16.718,20.35 3.133,6.091 4.157,11.489 3.761,16.041 -0.375,4.424 -2.097,8.06 -4.489,10.73 -1.361,1.523 -2.944,2.735 -4.612,3.595 -0.053,0.025 -0.102,0.053 -0.158,0.085 -2.751,1.373 -6.004,1.903 -9.356,1.497 -3.265,-0.395 -6.617,-1.666 -9.688,-3.879 -3.115,-2.248 -5.956,-5.467 -8.151,-9.732 -3.678,-7.143 -5.545,-17.18 -3.944,-30.462 0.132,-1.115 -0.635,-2.128 -1.734,-2.311l0 0z"/>
  <path class="fil0" d="M433.076 373.199c-0.795,-0.835 -2.116,-0.877 -2.953,-0.084 -0.836,0.788 -0.876,2.109 -0.085,2.945 4.739,5.042 10.83,8.495 17.381,9.987 6.393,1.454 13.209,1.041 19.652,-1.581 6.545,-2.665 11.761,-7.235 15.319,-12.842 3.648,-5.756 5.532,-12.609 5.284,-19.627 -0.04,-1.157 -1.006,-2.06 -2.162,-2.017 -1.153,0.044 -2.056,1.013 -2.014,2.163 0.219,6.181 -1.435,12.198 -4.628,17.247 -3.102,4.888 -7.658,8.87 -13.375,11.197 -5.642,2.297 -11.593,2.66 -17.155,1.395 -5.746,-1.303 -11.095,-4.347 -15.264,-8.783l0 0z"/>
  <path class="fil0" d="M421.646 334.696c0.043,-1.151 -0.86,-2.121 -2.01,-2.162 -1.152,-0.044 -2.121,0.853 -2.165,2.012 -0.018,0.46 -0.029,0.908 -0.029,1.334 0,0.387 0.011,0.828 0.029,1.336 0.049,1.153 1.018,2.05 2.17,2 1.152,-0.04 2.048,-1.009 1.998,-2.161 -0.012,-0.334 -0.016,-0.729 -0.016,-1.184 0,-0.405 0.011,-0.799 0.023,-1.175l0 0z"/>
  <path class="fil0" d="M466.714 314.475c-0.839,-0.795 -2.163,-0.763 -2.958,0.074 -0.793,0.835 -0.757,2.162 0.072,2.957 0.279,0.258 0.559,0.533 0.844,0.823 0.315,0.329 0.586,0.612 0.811,0.855 0.769,0.86 2.09,0.927 2.946,0.151 0.853,-0.77 0.92,-2.091 0.15,-2.944 -0.338,-0.375 -0.648,-0.702 -0.915,-0.977 -0.297,-0.308 -0.617,-0.619 -0.95,-0.939l0 0z"/>
  <path class="fil0" d="M424.039 356.155c-0.38,-1.087 -1.575,-1.655 -2.658,-1.268 -1.087,0.383 -1.655,1.576 -1.274,2.661 0.134,0.382 0.292,0.801 0.474,1.254 0.17,0.424 0.339,0.831 0.513,1.225 0.461,1.053 1.692,1.533 2.746,1.073 1.055,-0.468 1.535,-1.696 1.073,-2.751 -0.164,-0.371 -0.32,-0.736 -0.461,-1.091 -0.127,-0.327 -0.264,-0.691 -0.413,-1.103l0 0z"/>
  <path class="fil0" d="M480.892 332.777c-0.484,-1.05 -1.726,-1.504 -2.767,-1.019 -1.05,0.484 -1.504,1.726 -1.019,2.776 0.181,0.387 0.34,0.744 0.477,1.071 0.149,0.352 0.292,0.721 0.438,1.103 0.399,1.073 1.606,1.624 2.684,1.219 1.08,-0.408 1.625,-1.611 1.217,-2.691 -0.151,-0.399 -0.313,-0.811 -0.489,-1.235 -0.186,-0.448 -0.369,-0.856 -0.541,-1.224l0 0z"/>
  <path class="fil0" d="M99.626 236.84c0.768,-1.782 1.973,-3.375 3.498,-4.517l-3.973 -1.53c-0.259,-0.076 -0.507,-0.206 -0.73,-0.387 -0.875,-0.725 -0.996,-2.02 -0.277,-2.896l8.016 -9.691 0.005 0.003c0.148,-0.179 0.327,-0.334 0.542,-0.457 0.973,-0.577 2.229,-0.254 2.804,0.725l2.329 3.982c0.357,-0.718 0.789,-1.381 1.289,-1.983 0.832,-1.006 1.847,-1.839 2.971,-2.473 1.113,-0.635 2.332,-1.064 3.581,-1.27 2.665,-0.438 5.464,0.134 7.682,1.967 6.692,5.535 7.039,17.786 7.38,30.039 0.042,1.019 -0.688,1.932 -1.72,2.099 -12.105,1.966 -24.212,3.931 -30.91,-1.608 -2.041,-1.687 -3.098,-3.908 -3.369,-6.235 -0.23,-1.949 0.106,-3.962 0.882,-5.768l0 0zm9.614 -2.225c-1.365,-0.176 -2.607,0.218 -3.622,0.967 -0.967,0.713 -1.736,1.733 -2.234,2.885 -0.497,1.159 -0.714,2.433 -0.573,3.65 0.158,1.331 0.762,2.601 1.922,3.562 4.996,4.13 15.293,2.721 25.866,1.015 -0.311,-10.704 -0.86,-21.083 -5.857,-25.217 -1.235,-1.02 -2.843,-1.335 -4.394,-1.078 -0.776,0.128 -1.532,0.396 -2.225,0.786 -0.688,0.391 -1.316,0.904 -1.828,1.522 -1.045,1.264 -1.609,3 -1.268,5.073 0.186,1.12 -0.572,2.177 -1.689,2.36 -0.914,0.153 -1.788,-0.327 -2.179,-1.117l-3.699 -6.323 -4.329 5.236 7.106 2.735c1.056,0.41 1.583,1.594 1.177,2.653 -0.35,0.895 -1.261,1.41 -2.174,1.291l0 0z"/>
  <path class="fil1" d="M154.741 242.864l3.986 1.501 -2.166 -3.703 -1.82 2.202 0 0zm-2.553 -0.883l2.999 -3.625 -2.042 -3.453c-0.111,-0.186 -0.091,-0.413 0.05,-0.584l1.208 -1.467c0.114,-0.132 0.271,-0.2 0.436,-0.183 0.176,0.015 0.313,0.104 0.403,0.255l7.28 12.718c0.106,0.188 0.09,0.411 -0.051,0.578l-1.338 1.619c-0.139,0.165 -0.359,0.227 -0.563,0.154l-13.743 -4.905c-0.16,-0.057 -0.274,-0.178 -0.32,-0.343 -0.046,-0.167 -0.011,-0.329 0.098,-0.459l1.299 -1.569c0.142,-0.173 0.366,-0.231 0.573,-0.153l3.711 1.417 0 0z"/>
  <path class="fil1" d="M78.349 230.573l3.984 1.497 -2.163 -3.698 -1.821 2.201 0 0zm-2.554 -0.885l2.999 -3.624 -2.04 -3.452c-0.111,-0.192 -0.092,-0.415 0.046,-0.584l1.215 -1.469c0.109,-0.13 0.264,-0.199 0.433,-0.181 0.172,0.014 0.316,0.104 0.401,0.251l7.28 12.721c0.107,0.188 0.088,0.41 -0.051,0.577l-1.337 1.618c-0.139,0.169 -0.357,0.229 -0.563,0.157l-13.742 -4.906c-0.16,-0.06 -0.275,-0.179 -0.319,-0.345 -0.045,-0.165 -0.012,-0.327 0.097,-0.459l1.296 -1.57c0.145,-0.173 0.366,-0.229 0.576,-0.15l3.709 1.416 0 0z"/>
  <path class="fil0" d="M103.476 188.064c-0.95,0.614 -2.218,0.339 -2.83,-0.61 -0.612,-0.948 -0.34,-2.217 0.608,-2.827 1.089,-0.7 2.352,-1.098 3.639,-1.149 1.257,-0.049 2.534,0.22 3.703,0.859l69.292 37.541c1.742,0.943 2.934,2.514 3.462,4.283 0.526,1.772 0.38,3.745 -0.564,5.485l-22.821 42.12c-1.075,1.987 -2.871,3.35 -4.894,3.956 -2.023,0.601 -4.279,0.436 -6.269,-0.642 -0.117,-0.066 -0.225,-0.138 -0.327,-0.224l-0.001 0c-0.873,-0.721 -0.998,-2.017 -0.275,-2.892 0.654,-0.791 1.778,-0.969 2.635,-0.46 0.982,0.51 2.077,0.582 3.068,0.292 0.987,-0.296 1.869,-0.957 2.417,-1.921 0.024,-0.048 0.056,-0.104 0.084,-0.151l22.778 -42.04c0.405,-0.747 0.47,-1.593 0.243,-2.355 -0.225,-0.761 -0.744,-1.435 -1.495,-1.845l-69.292 -37.543c-0.51,-0.276 -1.056,-0.392 -1.587,-0.373 -0.559,0.021 -1.105,0.193 -1.574,0.496l0 0z"/>
  <path class="fil0" d="M136.159 282.093l30.919 -37.389c0.554,-0.666 0.784,-1.504 0.704,-2.313 -0.076,-0.809 -0.459,-1.585 -1.128,-2.14l-61.511 -50.866c-0.666,-0.552 -1.504,-0.781 -2.313,-0.705 -0.809,0.077 -1.585,0.457 -2.14,1.127l-31.584 38.196c-0.553,0.666 -0.779,1.502 -0.706,2.309 0.076,0.81 0.46,1.589 1.128,2.141l60.712 50.203c0.887,0.733 1.997,1.041 3.073,0.939 1.075,-0.104 2.109,-0.612 2.846,-1.502l0 0zm34.085 -34.77l-30.919 37.392c-1.456,1.764 -3.502,2.771 -5.623,2.969 -2.122,0.201 -4.32,-0.404 -6.084,-1.859l-60.707 -50.206c-1.545,-1.275 -2.424,-3.064 -2.598,-4.918 -0.178,-1.856 0.35,-3.776 1.629,-5.321l31.581 -38.194c1.279,-1.541 3.065,-2.422 4.92,-2.596 1.854,-0.176 3.779,0.352 5.319,1.627l61.515 50.869c1.542,1.274 2.422,3.063 2.598,4.916 0.175,1.856 -0.354,3.781 -1.631,5.321l0 0z"/>
  <path class="fil0" d="M108.223 188.62c-1.104,-0.227 -1.82,-1.309 -1.597,-2.415 0.227,-1.11 1.309,-1.826 2.415,-1.597l77.224 15.753c1.938,0.392 3.542,1.548 4.555,3.083 1.019,1.54 1.451,3.464 1.061,5.406l-9.581 46.937c-0.405,1.993 -1.495,3.666 -2.971,4.822 -1.505,1.184 -3.412,1.838 -5.409,1.757 -0.431,-0.013 -4.453,-0.957 -6.842,-1.514 -0.95,-0.224 -1.574,-0.368 -1.609,-0.38 -1.107,-0.226 -1.823,-1.304 -1.598,-2.414 0.225,-1.106 1.307,-1.819 2.415,-1.597 0.222,0.048 0.861,0.195 1.738,0.401 2.239,0.524 6.011,1.407 6.056,1.407 0.992,0.044 1.951,-0.29 2.706,-0.886 0.751,-0.59 1.305,-1.427 1.504,-2.412l9.579 -46.939c0.167,-0.834 -0.019,-1.662 -0.459,-2.327 -0.44,-0.667 -1.131,-1.163 -1.963,-1.332l-77.224 -15.753 0 0z"/>
  <path class="fil0" d="M340.506 231.113l-61.141 9.623c-2.122,0.334 -3.916,1.507 -5.091,3.127 -1.184,1.619 -1.747,3.682 -1.414,5.801l8.673 55.091c0.333,2.121 1.502,3.915 3.126,5.09 1.618,1.182 3.685,1.747 5.801,1.411l61.148 -9.621c2.122,-0.333 3.907,-1.51 5.091,-3.128 1.175,-1.616 1.737,-3.683 1.405,-5.797l-8.664 -55.096c-0.34,-2.12 -1.512,-3.91 -3.128,-5.09 -1.62,-1.181 -3.685,-1.744 -5.806,-1.411l0 0zm-61.768 5.679l61.15 -9.623c3.205,-0.506 6.327,0.345 8.776,2.128 2.439,1.777 4.212,4.486 4.719,7.694l8.672 55.092c0.501,3.212 -0.352,6.334 -2.132,8.776 -1.775,2.446 -4.485,4.216 -7.697,4.721l-61.143 9.623c-3.212,0.509 -6.333,-0.346 -8.774,-2.128 -2.449,-1.782 -4.218,-4.489 -4.719,-7.696l-8.674 -55.094c-0.503,-3.206 0.347,-6.328 2.129,-8.773 1.781,-2.444 4.488,-4.213 7.693,-4.72l0 0z"/>
  <path class="fil0" d="M363.323 264.749l-5.437 0.853 3.666 23.301 5.437 -0.86 -3.666 -23.294 0 0zm-6.814 -2.976l6.946 -1.09c0.874,-0.139 1.727,0.096 2.401,0.587l0.005 -0.005c0.667,0.484 1.15,1.231 1.289,2.107l3.905 24.805c0.138,0.878 -0.098,1.738 -0.584,2.404 -0.482,0.667 -1.229,1.151 -2.107,1.291l-6.946 1.091c-0.878,0.139 -1.734,-0.092 -2.405,-0.581 -0.065,-0.049 -0.128,-0.096 -0.189,-0.153 -0.567,-0.485 -0.975,-1.168 -1.103,-1.956l-3.902 -24.804c-0.139,-0.866 0.097,-1.721 0.584,-2.392l0.009 -0.013c0.493,-0.666 1.231,-1.15 2.097,-1.291l0 0z"/>
  <path class="fil0" d="M360.02 304.356l-76.737 12.077 -0.52 7.204 79.849 -12.567 -2.592 -6.714 0 0zm-77.827 8.205l77.681 -12.23c0.941,-0.144 1.757,0.099 2.441,0.595 0.624,0.454 1.091,1.127 1.376,1.859l2.999 7.794c0.084,0.206 0.133,0.406 0.165,0.593 0.134,0.844 -0.109,1.644 -0.582,2.292 -0.4,0.552 -0.982,1 -1.624,1.247 -0.23,0.093 -0.468,0.153 -0.704,0.19l-81.289 12.798c-0.263,0.04 -0.53,0.047 -0.801,0.028 -0.044,-0.005 -0.084,-0.012 -0.134,-0.016 -0.624,-0.068 -1.243,-0.304 -1.732,-0.667 -0.649,-0.473 -1.122,-1.159 -1.251,-1.987 -0.037,-0.208 -0.04,-0.424 -0.024,-0.661l0.606 -8.364c0.057,-0.776 0.291,-1.545 0.739,-2.169 0.044,-0.055 0.094,-0.109 0.141,-0.164 0.477,-0.587 1.14,-1.004 1.993,-1.138l0 0z"/>
  <path class="fil0" d="M369.743 235.577c-0.174,-1.087 0.57,-2.112 1.661,-2.283 1.094,-0.173 2.116,0.575 2.286,1.66l5.979 38.001c0.19,1.187 -0.125,2.343 -0.785,3.247 -0.661,0.902 -1.662,1.557 -2.851,1.745l-7.949 1.249c-1.088,0.174 -2.114,-0.57 -2.285,-1.661 -0.168,-1.09 0.576,-2.109 1.661,-2.285l7.95 -1.249c0.102,-0.015 0.191,-0.072 0.243,-0.149 0.06,-0.081 0.086,-0.178 0.072,-0.28l-5.982 -37.995 0 0z"/>
  <path class="fil1" d="M370.369 227.183c3.886,-0.61 7.539,2.079 8.157,6.007 0.619,3.93 -2.032,7.611 -5.919,8.221 -3.886,0.614 -7.541,-2.077 -8.16,-6.008 -0.617,-3.926 2.032,-7.606 5.922,-8.22l0 0z"/>
  <path class="fil0" d="M363.703 315.56l-80.618 12.689 1.423 9.073 80.627 -12.689 -1.432 -9.073 0 0zm-81.522 8.786l81.182 -12.773c1.013,-0.159 1.997,0.109 2.757,0.666 0.772,0.556 1.328,1.413 1.486,2.424l1.515 9.631c0.158,1.004 -0.11,1.987 -0.667,2.754 -0.558,0.77 -1.411,1.33 -2.424,1.486l-81.176 12.776c-1.011,0.161 -1.993,-0.111 -2.763,-0.669 -0.763,-0.557 -1.321,-1.412 -1.48,-2.418l-1.514 -9.634c-0.165,-1.006 0.102,-1.99 0.667,-2.756 0.557,-0.773 1.412,-1.323 2.417,-1.487l0 0z"/>
  <path class="fil0" d="M297.088 270.118l-13.215 2.084c-0.094,0.012 -0.171,0.067 -0.227,0.139 -0.053,0.081 -0.085,0.171 -0.065,0.267l4.339 27.595c0.018,0.093 0.072,0.177 0.146,0.232 0.072,0.054 0.169,0.079 0.259,0.067l13.218 -2.085c0.097,-0.012 0.174,-0.068 0.229,-0.14 0.054,-0.078 0.077,-0.169 0.068,-0.268l-4.346 -27.594c-0.019,-0.09 -0.072,-0.176 -0.146,-0.23 -0.072,-0.055 -0.169,-0.078 -0.26,-0.067l0 0zm-13.835 -1.861l13.212 -2.085c1.187,-0.181 2.338,0.129 3.235,0.788 0.902,0.655 1.551,1.648 1.738,2.836l4.346 27.596c0.181,1.182 -0.128,2.334 -0.783,3.237 -0.659,0.897 -1.653,1.551 -2.84,1.732l-13.21 2.084c-1.181,0.182 -2.334,-0.126 -3.237,-0.779 -0.897,-0.663 -1.551,-1.657 -1.739,-2.844l-4.34 -27.596c-0.186,-1.18 0.129,-2.333 0.783,-3.237 0.654,-0.895 1.654,-1.551 2.835,-1.732l0 0z"/>
  <path class="fil0" d="M321.486 266.281l-13.217 2.079c-0.096,0.018 -0.176,0.066 -0.23,0.146 -0.056,0.073 -0.077,0.162 -0.069,0.259l4.347 27.596c0.019,0.097 0.068,0.178 0.146,0.231 0.072,0.056 0.169,0.08 0.262,0.068l13.215 -2.079c0.088,-0.017 0.176,-0.074 0.225,-0.146 0.053,-0.074 0.083,-0.17 0.065,-0.258l-4.339 -27.598c-0.016,-0.097 -0.073,-0.176 -0.144,-0.229 -0.074,-0.056 -0.171,-0.086 -0.261,-0.069l0 0zm-13.836 -1.866l13.212 -2.077c1.18,-0.19 2.334,0.126 3.234,0.781 0.898,0.654 1.552,1.655 1.738,2.835l4.341 27.596c0.189,1.188 -0.128,2.34 -0.782,3.237 -0.655,0.904 -1.654,1.551 -2.836,1.739l-13.21 2.078c-1.187,0.19 -2.339,-0.127 -3.236,-0.781 -0.902,-0.655 -1.552,-1.655 -1.741,-2.836l-4.343 -27.603c-0.181,-1.18 0.126,-2.332 0.782,-3.229 0.66,-0.904 1.654,-1.552 2.841,-1.74l0 0z"/>
  <path class="fil0" d="M345.876 262.44l-13.212 2.079c-0.096,0.017 -0.176,0.074 -0.228,0.146 -0.057,0.072 -0.081,0.169 -0.065,0.258l4.343 27.604c0.012,0.089 0.064,0.176 0.138,0.23 0.08,0.049 0.171,0.078 0.266,0.062l13.21 -2.079c0.098,-0.014 0.178,-0.067 0.23,-0.139 0.057,-0.081 0.081,-0.171 0.069,-0.268l-4.345 -27.596c-0.014,-0.097 -0.067,-0.176 -0.141,-0.23 -0.079,-0.055 -0.168,-0.08 -0.265,-0.067l0 0zm-13.836 -1.866l13.217 -2.078c1.183,-0.19 2.332,0.125 3.229,0.779 0.904,0.655 1.558,1.657 1.74,2.845l4.344 27.596c0.189,1.18 -0.126,2.332 -0.781,3.228 -0.654,0.904 -1.655,1.558 -2.835,1.741l-13.219 2.077c-1.18,0.188 -2.33,-0.126 -3.227,-0.781 -0.904,-0.654 -1.559,-1.655 -1.74,-2.835l-4.344 -27.596c-0.187,-1.184 0.126,-2.335 0.78,-3.237 0.657,-0.897 1.656,-1.551 2.836,-1.739l0 0z"/>
  <path class="fil0" d="M273.474 264.014c-1.091,0.171 -2.116,-0.573 -2.287,-1.664 -0.167,-1.09 0.577,-2.109 1.664,-2.287l79.92 -12.576c1.092,-0.167 2.109,0.573 2.285,1.664 0.171,1.092 -0.575,2.112 -1.666,2.285l-79.916 12.578 0 0z"/>
  <path class="fil0" d="M317.588 276.626l0.82 1.673 1.725 -0.275c0.885,-0.137 1.723,0.468 1.86,1.354 0.088,0.546 -0.109,1.066 -0.477,1.422l-1.242 1.293 0.859 1.737c0.394,0.811 0.068,1.789 -0.745,2.188 -0.51,0.249 -1.09,0.206 -1.546,-0.059l-1.488 -0.813 -1.215 1.274c-0.623,0.654 -1.653,0.672 -2.303,0.052 -0.392,-0.38 -0.557,-0.909 -0.485,-1.41l0 0 0.28 -1.926 -1.629 -0.875c-0.795,-0.423 -1.091,-1.412 -0.667,-2.2 0.255,-0.466 0.697,-0.763 1.182,-0.836l0 -0.005 1.727 -0.267 0.266 -1.854c0.129,-0.892 0.953,-1.511 1.842,-1.383 0.557,0.08 1.011,0.438 1.236,0.91l0 0z"/>
  <path class="fil0" d="M293.301 280.448l0.818 1.675 1.727 -0.28c0.885,-0.139 1.713,0.468 1.854,1.358 0.089,0.545 -0.109,1.066 -0.48,1.424l-1.235 1.29 0.855 1.741c0.401,0.811 0.067,1.786 -0.739,2.181 -0.51,0.255 -1.091,0.211 -1.546,-0.056l-1.492 -0.813 -1.208 1.274c-0.626,0.649 -1.657,0.674 -2.306,0.056 -0.4,-0.383 -0.563,-0.909 -0.482,-1.419l-0.007 0 0.285 -1.921 -1.638 -0.878c-0.786,-0.424 -1.083,-1.407 -0.659,-2.2 0.246,-0.461 0.698,-0.757 1.18,-0.831l0 -0.007 1.727 -0.267 0.267 -1.859c0.127,-0.883 0.95,-1.502 1.844,-1.376 0.556,0.08 1.004,0.437 1.235,0.908l0 0z"/>
  <path class="fil0" d="M341.876 272.802l0.818 1.673 1.727 -0.273c0.89,-0.139 1.72,0.466 1.861,1.351 0.083,0.545 -0.111,1.066 -0.48,1.425l-1.244 1.289 0.862 1.745c0.4,0.807 0.069,1.782 -0.737,2.183 -0.515,0.249 -1.09,0.205 -1.551,-0.062l-1.493 -0.804 -1.212 1.265c-0.618,0.654 -1.647,0.679 -2.303,0.056 -0.392,-0.376 -0.556,-0.909 -0.485,-1.414l0 0 0.286 -1.919 -1.635 -0.88c-0.789,-0.423 -1.088,-1.41 -0.66,-2.198 0.246,-0.468 0.688,-0.764 1.173,-0.836l0 0 1.729 -0.274 0.266 -1.854c0.126,-0.89 0.95,-1.509 1.842,-1.383 0.557,0.08 1.013,0.437 1.236,0.91l0 0z"/>
  <path class="fil0" d="M310.874 237.786l0.481 0.984 1.014 -0.161c0.521,-0.082 1.014,0.273 1.091,0.799 0.056,0.318 -0.06,0.624 -0.276,0.835l-0.734 0.759 0.509 1.025c0.23,0.475 0.037,1.052 -0.436,1.286 -0.303,0.148 -0.642,0.123 -0.91,-0.035l-0.879 -0.475 -0.716 0.749c-0.362,0.382 -0.966,0.392 -1.349,0.028 -0.236,-0.221 -0.334,-0.535 -0.291,-0.832l0 0 0.169 -1.131 -0.964 -0.513c-0.466,-0.252 -0.635,-0.832 -0.388,-1.297 0.147,-0.274 0.408,-0.445 0.693,-0.492l0 0 1.016 -0.157 0.157 -1.094c0.074,-0.522 0.561,-0.886 1.085,-0.811 0.329,0.046 0.595,0.254 0.728,0.533l0 0z"/>
  <path class="fil0" d="M322.999 240.942l0.679 1.386 1.425 -0.227c0.731,-0.118 1.417,0.385 1.532,1.115 0.075,0.45 -0.09,0.883 -0.393,1.177l-1.025 1.068 0.711 1.438c0.327,0.667 0.054,1.473 -0.613,1.8 -0.425,0.209 -0.904,0.176 -1.278,-0.044l-1.23 -0.672 -1.001 1.052c-0.517,0.536 -1.37,0.556 -1.903,0.044 -0.327,-0.313 -0.468,-0.751 -0.405,-1.166l0 0 0.236 -1.591 -1.351 -0.726c-0.649,-0.346 -0.899,-1.164 -0.545,-1.814 0.206,-0.385 0.575,-0.627 0.975,-0.691l0 0 1.422 -0.225 0.222 -1.532c0.106,-0.737 0.785,-1.245 1.518,-1.143 0.468,0.067 0.838,0.36 1.024,0.751l0 0z"/>
  <path class="fil0" d="M301.075 244.648l0.674 1.382 1.423 -0.228c0.733,-0.115 1.425,0.385 1.539,1.118 0.067,0.451 -0.09,0.882 -0.401,1.177l-1.022 1.066 0.714 1.441c0.327,0.663 0.049,1.47 -0.617,1.797 -0.421,0.21 -0.897,0.176 -1.274,-0.045l-1.235 -0.669 -1 1.052c-0.516,0.537 -1.363,0.552 -1.904,0.041 -0.325,-0.312 -0.46,-0.751 -0.397,-1.165l0 0 0.23 -1.588 -1.345 -0.729c-0.658,-0.348 -0.899,-1.162 -0.553,-1.815 0.206,-0.385 0.577,-0.628 0.975,-0.691l0 0 1.425 -0.221 0.225 -1.536c0.102,-0.735 0.784,-1.246 1.52,-1.138 0.46,0.063 0.837,0.359 1.023,0.751l0 0z"/>
  <path class="fil0" d="M118.409 121.116l0.417 -38.783 53.815 -22.363 0 37.142 -54.232 24.004 0 0zm87.839 21.592c0.774,-0.347 1.318,-1.115 1.325,-2.014l0.628 -44.643c0.012,-0.503 -0.139,-1.011 -0.474,-1.444l-30.813 -39.369c-0.399,-0.615 -1.092,-1.022 -1.882,-1.022 -0.53,0 -1.019,0.187 -1.402,0.494l-57.884 24.053 0 0.005c-0.803,0.334 -1.368,1.122 -1.375,2.045l-0.47 43.901 0 0c-0.003,0.298 0.056,0.606 0.185,0.904 0.183,0.425 0.485,0.765 0.849,0.995l33.625 39.921c0.614,0.818 1.729,1.133 2.7,0.7l54.994 -24.526 -0.006 0 0 0zm-28.97 -44.352l0 -35.401 26.442 33.789 -0.52 37.19 -25.922 -35.578 0 0zm-18.56 53.671c-2.976,1.284 -6.793,0.592 -8.544,-1.557 -1.748,-2.141 -0.723,-4.95 2.289,-6.262 3.009,-1.314 6.83,-0.621 8.543,1.555 1.711,2.174 0.691,4.978 -2.288,6.264l0 0zm11.679 -30.323c-3.05,1.351 -6.867,0.656 -8.545,-1.553 -1.667,-2.215 -0.521,-5.124 2.559,-6.501 3.084,-1.376 6.904,-0.686 8.538,1.556 1.642,2.243 0.5,5.147 -2.552,6.498l0 0zm-38.963 -12.153c-3.138,1.313 -5.697,0.507 -5.721,-1.806 -0.016,-2.308 2.506,-5.228 5.641,-6.543 3.143,-1.307 5.702,-0.502 5.714,1.801 0.025,2.302 -2.494,5.236 -5.634,6.548l0 0zm27.171 -31.109c-3.147,1.302 -5.704,0.493 -5.716,-1.795 -0.018,-2.296 2.52,-5.2 5.669,-6.495 3.146,-1.289 5.704,-0.489 5.716,1.802 0.013,2.288 -2.524,5.19 -5.669,6.488l0 0zm-13.611 15.53c-3.136,1.305 -5.693,0.491 -5.718,-1.812 -0.016,-2.295 2.521,-5.216 5.657,-6.511 3.15,-1.307 5.711,-0.5 5.723,1.792 0.02,2.296 -2.526,5.223 -5.662,6.531l0 0zm46.528 8.018c-1.658,-2.132 -2.953,-5.749 -2.888,-8.085 0.067,-2.318 1.462,-2.485 3.117,-0.357 1.653,2.127 2.948,5.757 2.888,8.074 -0.061,2.338 -1.458,2.499 -3.117,0.368l0 0zm10.364 37.766l-50.915 22.71 -31.098 -36.919 54.198 -23.498 27.815 37.707 0 0z"/>
  <path class="fil0" d="M151.26 167.234l54.994 -24.526 -0.006 -0.002c0.141,-0.062 0.276,-0.141 0.408,-0.236 0.996,-0.726 1.214,-2.123 0.489,-3.118l-30.514 -41.878c-0.572,-0.944 -1.775,-1.342 -2.815,-0.883l-58.583 25.931 0.005 0.007c-0.192,0.084 -0.373,0.197 -0.54,0.336 -0.943,0.793 -1.062,2.202 -0.269,3.147l34.131 40.522c0.614,0.818 1.729,1.133 2.7,0.7l0 0zm50.647 -27.487l-50.936 22.719 -31.202 -37.047 54.213 -23.999 27.925 38.327 0 0z"/>
  <path class="fil0" d="M117.022 126.784l58.666 -25.435c0.832,-0.323 1.423,-1.132 1.423,-2.084l0 -42.497c0.025,-0.337 -0.032,-0.678 -0.167,-1.007 -0.473,-1.145 -1.784,-1.685 -2.925,-1.211l-58.273 24.213 0 0.005c-0.803,0.334 -1.368,1.122 -1.375,2.045l-0.47 43.901 0 0c-0.003,0.298 0.056,0.606 0.185,0.904 0.489,1.131 1.805,1.651 2.936,1.166l0 0zm55.619 -28.981l-54.235 23.507 0.42 -38.977 53.815 -22.363 0 37.833z"/>
  <path class="fil0" d="M173.225 100.901l30.309 41.089 0.005 -0.004c0.398,0.551 1.045,0.906 1.773,0.915 1.235,0.013 2.248,-0.976 2.261,-2.207l0.628 -44.643c0.012,-0.503 -0.139,-1.011 -0.474,-1.444l-30.813 -39.369c-0.399,-0.615 -1.092,-1.022 -1.882,-1.022 -1.24,0 -2.244,1.007 -2.244,2.246l0 43.114 0.006 0c0,0.461 0.14,0.929 0.431,1.325l0 0zm29.975 33.091l-25.922 -35.142 0 -35.895 26.442 33.789 -0.52 37.248 0 0z"/>
  <path class="fil1" d="M158.718 152.027c-2.976,1.284 -6.793,0.592 -8.544,-1.557 -1.748,-2.141 -0.723,-4.95 2.289,-6.262 3.009,-1.314 6.83,-0.621 8.543,1.555 1.711,2.174 0.691,4.978 -2.288,6.264l0 0z"/>
  <path class="fil1" d="M170.397 121.704c-3.05,1.351 -6.867,0.656 -8.545,-1.553 -1.667,-2.215 -0.521,-5.124 2.559,-6.501 3.084,-1.376 6.904,-0.686 8.538,1.556 1.642,2.243 0.5,5.147 -2.552,6.498l0 0z"/>
  <path class="fil1" d="M131.434 109.551c-3.138,1.313 -5.697,0.507 -5.721,-1.806 -0.016,-2.308 2.506,-5.228 5.641,-6.543 3.143,-1.307 5.702,-0.502 5.714,1.801 0.025,2.302 -2.494,5.236 -5.634,6.548l0 0z"/>
  <path class="fil1" d="M158.605 78.442c-3.147,1.302 -5.704,0.493 -5.716,-1.795 -0.018,-2.296 2.52,-5.2 5.669,-6.495 3.146,-1.289 5.704,-0.489 5.716,1.802 0.013,2.288 -2.524,5.19 -5.669,6.488l0 0z"/>
  <path class="fil1" d="M144.994 93.972c-3.136,1.305 -5.693,0.491 -5.718,-1.812 -0.016,-2.295 2.521,-5.216 5.657,-6.511 3.15,-1.307 5.711,-0.5 5.723,1.792 0.02,2.296 -2.526,5.223 -5.662,6.531l0 0z"/>
  <path class="fil1" d="M191.522 101.99c-1.658,-2.132 -2.953,-5.749 -2.888,-8.085 0.067,-2.318 1.462,-2.485 3.117,-0.357 1.653,2.127 2.948,5.757 2.888,8.074 -0.061,2.338 -1.458,2.499 -3.117,0.368l0 0z"/>
  <path class="fil0" d="M194.006 309.137c-2.512,1.169 -4.503,3.91 -4.603,7.985 0.023,0.837 -0.488,1.632 -1.314,1.928 -1.04,0.375 -2.183,-0.158 -2.565,-1.2 -1.361,-3.757 -3.926,-5.616 -6.464,-5.89 -1.168,-0.125 -2.332,0.072 -3.361,0.57 -1.031,0.492 -1.941,1.292 -2.609,2.362 -1.685,2.703 -1.815,7.127 1.381,12.944 4.473,8.151 11.969,13.744 18.793,18.842 0.232,0.174 0.466,0.35 0.819,0.617l0.816 -1.449c3.956,-6.997 8.162,-14.439 9.328,-23.076 0.92,-6.816 -0.802,-11.004 -3.403,-12.96 -1.015,-0.77 -2.166,-1.196 -3.335,-1.296 -1.17,-0.111 -2.371,0.109 -3.483,0.623l0 0zm-7.515 2.552c1.223,-2.941 3.355,-5.038 5.826,-6.181 1.733,-0.813 3.643,-1.147 5.534,-0.978 1.896,0.177 3.755,0.856 5.382,2.081 3.641,2.744 6.104,8.196 4.955,16.692 -1.264,9.381 -5.669,17.169 -9.809,24.501 -0.518,0.909 -1.026,1.811 -1.912,3.431 -0.535,0.97 -1.749,1.321 -2.718,0.787 -0.134,-0.073 -0.253,-0.157 -0.362,-0.25l-2.521 -1.882c-7.15,-5.34 -15.005,-11.206 -19.902,-20.126 -4.011,-7.302 -3.643,-13.187 -1.272,-16.985 1.078,-1.732 2.577,-3.03 4.283,-3.854 1.706,-0.819 3.609,-1.146 5.504,-0.946 2.518,0.273 5.023,1.472 7.012,3.71l0 0z"/>
  <path class="fil0" d="M210.913 393.1c-2.728,-0.049 -5.53,-1.09 -7.836,-3.271 -0.913,2.847 -2.711,4.956 -4.901,6.228 -1.651,0.957 -3.528,1.43 -5.416,1.377 -1.894,-0.056 -3.792,-0.638 -5.477,-1.776 -3.713,-2.514 -6.439,-7.738 -5.743,-16.04 0.853,-10.132 5.646,-18.687 10.017,-26.476 0.57,-1.011 1.13,-2.017 1.603,-2.878l0.007 0.006c0.044,-0.085 0.1,-0.169 0.158,-0.246 0.667,-0.875 1.917,-1.051 2.795,-0.384 0.802,0.605 1.968,1.472 3.145,2.347 6.762,5.016 13.945,10.342 18.916,18.409 4.499,7.296 4.464,13.283 2.25,17.269 -0.989,1.782 -2.412,3.158 -4.069,4.084 -1.652,0.922 -3.532,1.388 -5.449,1.351l0 0zm-7.412 -9.507c1.743,3.75 4.693,5.467 7.472,5.514 1.217,0.025 2.404,-0.274 3.444,-0.847 1.025,-0.57 1.905,-1.43 2.52,-2.54 1.583,-2.848 1.455,-7.368 -2.151,-13.224 -4.571,-7.409 -11.438,-12.506 -17.903,-17.3 -0.434,-0.321 -0.868,-0.642 -1.333,-0.991l-0.499 0.895c-4.167,7.423 -8.739,15.579 -9.516,24.845 -0.558,6.617 1.358,10.61 3.989,12.392 1.05,0.711 2.206,1.066 3.344,1.103 1.15,0.031 2.292,-0.255 3.305,-0.841 2.207,-1.286 3.794,-4.032 3.514,-8.024 -0.072,-1.103 0.758,-2.055 1.861,-2.129 0.851,-0.059 1.61,0.426 1.949,1.152l0.004 -0.005 0 0z"/>
  <path class="fil0" d="M152.626 352.591c1.17,2.514 3.907,4.502 7.982,4.599 0.839,-0.016 1.629,0.492 1.932,1.32 0.376,1.038 -0.162,2.183 -1.198,2.558 -3.759,1.37 -5.622,3.935 -5.893,6.471 -0.128,1.165 0.073,2.327 0.569,3.358 0.492,1.031 1.289,1.938 2.358,2.605 2.707,1.692 7.128,1.819 12.95,-1.374 8.147,-4.478 13.744,-11.973 18.84,-18.796 0.172,-0.23 0.346,-0.463 0.616,-0.82l-1.444 -0.818c-7.003,-3.957 -14.445,-8.156 -23.081,-9.326 -6.816,-0.921 -11.005,0.806 -12.964,3.406 -0.763,1.018 -1.187,2.169 -1.295,3.333 -0.105,1.17 0.111,2.375 0.628,3.484l0 0zm2.549 7.515c-2.936,-1.219 -5.032,-3.353 -6.181,-5.824 -0.809,-1.734 -1.147,-3.641 -0.973,-5.532 0.173,-1.898 0.852,-3.764 2.078,-5.388 2.742,-3.641 8.195,-6.102 16.689,-4.956 9.38,1.266 17.172,5.67 24.506,9.811 0.909,0.514 1.813,1.022 3.428,1.914 0.969,0.535 1.321,1.75 0.789,2.721 -0.073,0.128 -0.158,0.25 -0.249,0.357l-1.886 2.522c-5.34,7.15 -11.206,15.008 -20.126,19.905 -7.301,4.007 -13.187,3.642 -16.984,1.268 -1.733,-1.078 -3.033,-2.577 -3.852,-4.285 -0.82,-1.703 -1.151,-3.606 -0.945,-5.504 0.273,-2.52 1.471,-5.022 3.706,-7.009l0 0z"/>
  <path class="fil0" d="M238.372 335.31c-0.048,2.726 -1.092,5.526 -3.272,7.834 2.848,0.908 4.957,2.709 6.225,4.895 0.962,1.656 1.436,3.527 1.378,5.418 -0.057,1.898 -0.634,3.789 -1.777,5.479 -2.514,3.715 -7.738,6.441 -16.04,5.745 -10.133,-0.855 -18.689,-5.653 -26.479,-10.024 -1.01,-0.562 -2.007,-1.128 -2.873,-1.599l0.004 -0.006c-0.086,-0.044 -0.165,-0.096 -0.245,-0.158 -0.877,-0.667 -1.048,-1.921 -0.381,-2.793 0.601,-0.801 1.47,-1.968 2.344,-3.145 5.015,-6.762 10.345,-13.943 18.41,-18.918 7.296,-4.504 13.28,-4.468 17.267,-2.249 1.782,0.988 3.161,2.411 4.088,4.072 0.918,1.648 1.383,3.526 1.351,5.449l0 0zm-9.509 7.408c3.745,-1.744 5.467,-4.694 5.516,-7.477 0.021,-1.212 -0.272,-2.404 -0.851,-3.442 -0.572,-1.022 -1.428,-1.902 -2.537,-2.521 -2.847,-1.579 -7.373,-1.454 -13.225,2.157 -7.411,4.57 -12.503,11.437 -17.298,17.897 -0.322,0.437 -0.645,0.873 -0.994,1.339l0.894 0.496c7.423,4.163 15.577,8.738 24.847,9.521 6.617,0.55 10.61,-1.358 12.39,-3.995 0.711,-1.048 1.071,-2.205 1.103,-3.345 0.033,-1.143 -0.255,-2.29 -0.841,-3.302 -1.282,-2.205 -4.026,-3.794 -8.024,-3.514 -1.103,0.072 -2.053,-0.758 -2.13,-1.861 -0.053,-0.85 0.425,-1.613 1.154,-1.953l-0.004 0 0 0z"/>
  <path class="fil0" d="M227.519 304.78l-0.974 -1.802 -0.908 1.67c-0.257,0.569 -0.777,1.009 -1.442,1.138l-2.035 0.404 1.391 1.523c0.412,0.417 0.64,1.019 0.563,1.649l-0.253 2.096 1.822 -0.867c0.524,-0.242 1.15,-0.267 1.711,0l1.828 0.867 -0.252 -2.096 0.004 0c-0.067,-0.558 0.098,-1.14 0.505,-1.583l1.446 -1.589 -2.037 -0.404 0 -0.007c-0.561,-0.109 -1.073,-0.461 -1.369,-0.999l0 0zm0.788 -6.92l2.271 4.181 4.6 0.915c1.087,0.212 1.794,1.259 1.583,2.346 -0.079,0.405 -0.275,0.756 -0.542,1.029l-3.163 3.46 0.579 4.798c0.125,1.1 -0.66,2.097 -1.755,2.225 -0.428,0.05 -0.839,-0.035 -1.191,-0.225l-4.144 -1.975 -4.25 2.019c-0.999,0.473 -2.188,0.048 -2.665,-0.953 -0.161,-0.352 -0.214,-0.727 -0.174,-1.091l-0.002 0 0.576 -4.798 -3.217 -3.527c-0.748,-0.812 -0.686,-2.077 0.133,-2.825 0.278,-0.253 0.612,-0.417 0.962,-0.483l-0.003 0 4.603 -0.915 2.281 -4.201c0.526,-0.969 1.738,-1.326 2.707,-0.8 0.359,0.194 0.632,0.486 0.811,0.82l0 0z"/>
  <path class="fil0" d="M172.024 393.646c-0.492,0.981 -1.695,1.38 -2.679,0.891 -0.987,-0.492 -1.386,-1.692 -0.892,-2.679l2.959 -5.908c0.492,-0.987 1.69,-1.382 2.679,-0.89 0.985,0.489 1.384,1.689 0.892,2.679l-2.959 5.907 0 0z"/>
  <path class="fil0" d="M317.715 130.344l-18.265 -21.523 -8.063 26.86c-0.171,0.752 -0.686,1.414 -1.45,1.734l-25.65 10.916 22.808 16.462c0.602,0.396 1.019,1.055 1.092,1.831l2.459 28.328 22.197 -16.873c0.57,-0.428 1.315,-0.611 2.059,-0.43l27.101 6.573 -9.084 -26.945 0 0c-0.218,-0.651 -0.162,-1.39 0.211,-2.028l14.364 -24.304 -27.876 0.266 0 -0.005c-0.709,0.01 -1.411,-0.285 -1.903,-0.862l0 0zm-17.433 -28.126l20.421 24.066 31.092 -0.3c1.358,-0.02 2.475,1.067 2.492,2.425 0.007,0.507 -0.141,0.976 -0.396,1.37l-15.95 26.997 10.153 30.104c0.429,1.288 -0.26,2.684 -1.552,3.115 -0.504,0.171 -1.018,0.166 -1.486,0.025l-30.169 -7.317 -24.821 18.866c-1.087,0.818 -2.626,0.602 -3.442,-0.478 -0.291,-0.382 -0.449,-0.821 -0.493,-1.263l0 0 -2.751 -31.652 -25.512 -18.411c-1.097,-0.799 -1.345,-2.333 -0.547,-3.434 0.273,-0.378 0.637,-0.654 1.036,-0.823l0 -0.002 28.606 -12.175 9.089 -30.249c0.388,-1.3 1.759,-2.032 3.055,-1.641 0.48,0.142 0.878,0.422 1.175,0.777l0 0z"/>
  <path class="fil0" d="M265.935 196.957l-3.668 -4.321 -1.577 5.252c-0.164,0.753 -0.681,1.416 -1.444,1.736l-5.209 2.214 4.6 3.325c0.601,0.397 1.022,1.055 1.092,1.831l0.5 5.753 4.459 -3.389c0.564,-0.429 1.315,-0.61 2.059,-0.431l5.443 1.321 -1.844 -5.47 0 0c-0.218,-0.651 -0.165,-1.39 0.211,-2.03l2.941 -4.976 -5.66 0.056 0 -0.007c-0.704,0.009 -1.406,-0.285 -1.903,-0.864l0 0zm-2.834 -10.925l5.827 6.866 8.873 -0.088c1.356,-0.02 2.476,1.069 2.496,2.429 0.007,0.505 -0.141,0.974 -0.4,1.367l-4.527 7.669 2.911 8.632c0.427,1.286 -0.262,2.681 -1.552,3.114 -0.499,0.167 -1.021,0.165 -1.486,0.024l-8.513 -2.065 -7.085 5.385c-1.08,0.816 -2.625,0.603 -3.443,-0.48 -0.288,-0.382 -0.448,-0.82 -0.483,-1.263l-0.002 0 -0.793 -9.077 -7.303 -5.271c-1.101,-0.795 -1.346,-2.331 -0.549,-3.432 0.271,-0.378 0.633,-0.656 1.036,-0.825l0 -0.002 8.165 -3.475 2.596 -8.644c0.391,-1.296 1.761,-2.033 3.057,-1.644 0.475,0.146 0.88,0.422 1.175,0.78l0 0z"/>
  <path class="fil0" d="M370.749 175.058l-3.671 -4.32 -1.576 5.253c-0.167,0.751 -0.684,1.412 -1.447,1.732l-5.212 2.218 4.607 3.321c0.598,0.401 1.021,1.062 1.09,1.833l0.502 5.753 4.455 -3.385c0.57,-0.431 1.314,-0.613 2.06,-0.433l5.442 1.321 -1.842 -5.474 0 0c-0.22,-0.649 -0.165,-1.39 0.213,-2.028l2.944 -4.973 -5.667 0.055 0 -0.011c-0.702,0.011 -1.405,-0.283 -1.898,-0.862l0 0zm-2.835 -10.923l5.824 6.862 8.872 -0.084c1.365,-0.016 2.48,1.069 2.496,2.425 0.009,0.505 -0.139,0.978 -0.394,1.37l-4.531 7.668 2.906 8.631c0.436,1.287 -0.259,2.686 -1.543,3.115 -0.505,0.169 -1.018,0.167 -1.492,0.023l-8.511 -2.062 -7.085 5.383c-1.08,0.819 -2.626,0.605 -3.442,-0.482 -0.287,-0.38 -0.449,-0.82 -0.486,-1.263l0 0 -0.795 -9.075 -7.3 -5.271c-1.103,-0.795 -1.345,-2.333 -0.554,-3.434 0.275,-0.378 0.639,-0.654 1.038,-0.823l0 -0.003 8.168 -3.473 2.595 -8.643c0.394,-1.3 1.757,-2.035 3.059,-1.641 0.48,0.141 0.879,0.418 1.175,0.777l0 0z"/>
  <path class="fil0" d="M301.304 138.755c-0.343,1.309 -1.683,2.088 -2.992,1.745 -1.314,-0.346 -2.097,-1.69 -1.75,-2.999l2.077 -7.845c0.347,-1.31 1.683,-2.093 2.996,-1.746 1.313,0.346 2.094,1.686 1.75,2.995l-2.081 7.85 0 0z"/>
 </g>
</svg>
